<svg width="375" height="375" viewBox="0 0 375 375" fill="none" xmlns="http://www.w3.org/2000/svg">
<path d="M358.262 207.495C358.262 207.495 358.21 101.797 301.6 51.3147C251.627 6.74971 182.83 -2.30279 136.63 49.2297C120.167 67.5897 100.262 86.7297 79.5845 99.5547C56.4095 113.94 29.3345 120.51 13.532 168.135C-2.27046 215.76 22.187 285.607 58.022 310.335C93.857 335.062 150.01 325.875 198.272 315.532C246.535 305.19 354.055 338.655 358.262 207.495Z" fill="url(#paint0_radial_118_1028)"/>
<path opacity="0.7" d="M358.262 207.495C358.262 207.495 358.21 101.797 301.6 51.3147C251.627 6.74971 182.83 -2.30279 136.63 49.2297C120.167 67.5897 100.262 86.7297 79.5845 99.5547C56.4095 113.94 29.3345 120.51 13.532 168.135C-2.27046 215.76 22.187 285.607 58.022 310.335C93.857 335.062 150.01 325.875 198.272 315.532C246.535 305.19 354.055 338.655 358.262 207.495Z" fill="#F2F2F2"/>
<path opacity="0.16" d="M186.197 358.357C249.733 358.357 301.239 352.075 301.239 344.325C301.239 336.575 249.733 330.292 186.197 330.292C122.661 330.292 71.1543 336.575 71.1543 344.325C71.1543 352.075 122.661 358.357 186.197 358.357Z" fill="url(#paint1_radial_118_1028)"/>
<path opacity="0.07" d="M301.599 51.3077C293.739 44.272 285.211 38.0199 276.136 32.6402L201.271 145.14L303.001 52.5977C302.544 52.1627 302.079 51.7502 301.599 51.3077ZM234.601 16.3577C222.928 13.9268 210.929 13.4679 199.104 15.0002L201.271 145.133L234.601 16.3577ZM156.136 31.8452C148.986 36.8667 142.442 42.7007 136.636 49.2302C134.606 51.5052 132.519 53.7852 130.374 56.0702L201.279 145.148L156.136 31.8452ZM94.719 89.0102C89.8571 92.7775 84.8082 96.297 79.5915 99.5552C68.364 106.5 56.2515 111.653 44.889 120.51L201.271 145.148L94.719 89.0102ZM8.91898 192.608C7.54648 212.91 11.394 234.885 18.8415 254.76L201.271 145.148L8.91898 192.608ZM201.271 145.148L71.034 317.52C89.979 325.77 112.756 327.27 136.359 325.455L201.271 145.148ZM201.271 145.148L207.466 314.108C220.854 312.675 237.204 313.118 254.139 312.39L201.271 145.148ZM347.477 262.223L201.271 145.148L315.107 298.605C328.359 291.188 339.751 279.795 347.477 262.223ZM353.664 161.25L201.271 145.148L358.119 201.945C357.493 188.3 356.005 174.708 353.664 161.25ZM328.982 86.4902L201.271 145.148L342.384 116.888C338.777 106.397 334.294 96.2289 328.982 86.4902Z" fill="url(#paint2_radial_118_1028)"/>
<path d="M333.447 251.461C333.447 251.461 325.354 248.723 322.947 247.051C320.539 245.378 314.382 239.198 312.949 234.436C311.713 230.04 310.892 225.537 310.497 220.988C310.137 217.298 308.592 216.346 306.327 219.203C304.062 222.061 303.327 226.703 303.949 229.703C304.572 232.703 306.447 236.131 306.199 236.731C305.952 237.331 305.599 238.516 305.599 238.516C305.599 238.516 298.339 237.683 294.297 236.731C290.254 235.778 287.037 235.418 286.797 237.323C286.557 239.228 287.389 242.206 287.629 244.231C287.869 246.256 290.959 255.181 292.512 257.198C293.612 258.768 294.888 260.207 296.314 261.488C297.267 262.201 297.267 262.793 299.532 263.033C301.451 263.205 303.359 263.483 305.247 263.866C306.079 264.106 306.912 264.938 310.842 264.818C313.312 264.733 315.774 264.495 318.214 264.106L329.997 268.501L333.447 251.461Z" fill="#F2F2F2" stroke="#263238" stroke-width="0.5625" stroke-miterlimit="10"/>
<path d="M329.637 249.195L324.755 270.383L332.735 273.593L336.777 251.58L329.637 249.195Z" fill="#F2F2F2" stroke="#263238" stroke-width="0.5625" stroke-miterlimit="10"/>
<path d="M349.739 253.246L334.161 249.436L328.446 274.666L349.649 284.558L349.739 282.646V253.246Z" fill="#263238" stroke="#263238" stroke-width="0.5625" stroke-miterlimit="10"/>
<path d="M305.12 239.558C305.12 239.558 304.048 246.001 304.048 247.501C304.048 249.001 307.378 253.216 308.548 253.448" stroke="#263238" stroke-width="0.5625" stroke-miterlimit="10"/>
<path d="M302.737 255.75C302.737 255.75 304.409 256.343 303.929 257.775C303.449 259.208 299.879 261.225 298.214 262.178C296.549 263.13 295.964 263.01 294.052 261.938C292.928 261.317 292.078 260.297 291.667 259.08C292.866 259.05 294.062 258.933 295.244 258.728L302.737 255.75Z" fill="#F2F2F2" stroke="#263238" stroke-width="0.5625" stroke-miterlimit="10"/>
<path d="M289.05 252.646C289.05 252.646 289.05 258.121 290.362 258.601C291.615 259.084 292.949 259.326 294.292 259.313C295.125 259.193 300.72 257.288 301.792 256.576C302.865 255.863 303.937 254.326 303.345 252.886L302.745 251.461C300.936 251.77 299.104 251.928 297.27 251.933C294.27 251.933 289.297 250.981 288.937 251.341C288.577 251.701 289.05 252.646 289.05 252.646Z" fill="#F2F2F2" stroke="#263238" stroke-width="0.5625" stroke-miterlimit="10"/>
<path d="M287.249 245.25C287.011 245.402 286.82 245.616 286.694 245.868C286.569 246.12 286.514 246.402 286.537 246.683C286.537 247.755 285.112 250.965 286.777 252.038C288.442 253.11 293.677 253.943 294.749 253.943C295.822 253.943 302.129 251.693 302.722 251.445C303.314 251.198 303.322 249.06 303.082 248.228C302.842 247.395 300.704 247.155 300.704 247.155C300.704 247.155 291.554 246.938 287.249 245.25Z" fill="#F2F2F2" stroke="#263238" stroke-width="0.5625" stroke-miterlimit="10"/>
<path d="M290.361 238.006C290.361 238.006 294.171 240.863 294.861 241.103L300.696 243.128C300.696 243.128 301.446 243.481 301.446 244.913C301.433 245.53 301.198 246.122 300.785 246.58C300.372 247.039 299.808 247.333 299.196 247.411C298.011 247.651 293.721 248.363 292.176 247.771C290.069 246.729 288.042 245.536 286.108 244.201C285.036 243.451 284.916 242.528 285.508 241.201C286.023 239.918 286.462 238.605 286.821 237.271" fill="#F2F2F2"/>
<path d="M290.361 238.006C290.361 238.006 294.171 240.863 294.861 241.103L300.696 243.128C300.696 243.128 301.446 243.481 301.446 244.913C301.433 245.53 301.198 246.122 300.785 246.58C300.372 247.039 299.808 247.333 299.196 247.411C298.011 247.651 293.721 248.363 292.176 247.771C290.069 246.729 288.042 245.536 286.108 244.201C285.036 243.451 284.916 242.528 285.508 241.201C286.023 239.918 286.462 238.605 286.821 237.271" stroke="#263238" stroke-width="0.5625" stroke-miterlimit="10"/>
<path d="M309.753 67.4097C309.753 67.4097 301.57 69.8922 298.668 69.9222C295.765 69.9522 287.125 68.5197 283.195 65.4747C279.619 62.6318 276.32 59.4577 273.34 55.9947C270.903 53.1972 269.088 53.3247 268.908 56.9622C268.728 60.5997 270.85 64.7922 273.07 66.8697C275.29 68.9472 278.838 70.6197 278.995 71.2647C279.153 71.9097 279.55 73.0647 279.55 73.0647C279.55 73.0647 273.16 76.6122 269.313 78.1872C265.465 79.7622 262.645 81.3522 263.56 83.0397C264.475 84.7272 266.883 86.6622 268.255 88.1697C269.628 89.6772 277.338 95.1297 279.775 95.8797C281.584 96.5114 283.458 96.9366 285.363 97.1472C286.555 97.1472 286.863 97.6572 288.88 96.5397C290.537 95.5583 292.25 94.6743 294.01 93.8922C294.828 93.5997 295.99 93.7947 299.11 91.4097C301.072 89.9021 302.938 88.274 304.698 86.5347L316.848 83.2572L309.753 67.4097Z" fill="#F2F2F2" stroke="#263238" stroke-width="0.5625" stroke-miterlimit="10"/>
<path d="M305.328 67.7845L313.691 87.8545L322.046 85.8295L312.521 65.5645L305.328 67.7845Z" fill="#F2F2F2" stroke="#263238" stroke-width="0.5625" stroke-miterlimit="10"/>
<path d="M324.033 59.3848L309.146 65.3473L319.181 89.1898L342.176 84.8998L341.141 83.2948L324.033 59.3848Z" fill="#263238" stroke="#263238" stroke-width="0.5625" stroke-miterlimit="10"/>
<path d="M279.752 74.2495C279.752 74.2495 282.624 80.0995 283.502 81.3595C284.379 82.6195 289.502 84.067 290.642 83.5645" stroke="#263238" stroke-width="0.5625" stroke-miterlimit="10"/>
<path d="M287.253 88.7621C287.253 88.7621 288.956 88.2746 289.398 89.7146C289.841 91.1546 288.116 94.8746 287.313 96.6221C286.511 98.3696 285.963 98.6171 283.788 98.8721C282.513 99.0232 281.228 98.6885 280.188 97.9346C281.147 97.2138 282.05 96.4215 282.888 95.5646L287.253 88.7621Z" fill="#F2F2F2" stroke="#263238" stroke-width="0.5625" stroke-miterlimit="10"/>
<path d="M274.331 94.2069C274.331 94.2069 277.511 98.6619 278.831 98.2869C280.132 97.95 281.358 97.3726 282.446 96.5844C283.054 95.9994 286.496 91.1994 286.946 89.9919C287.396 88.7844 287.374 86.9094 286.061 86.0919L284.749 85.2744C283.458 86.5805 282.061 87.7771 280.571 88.8519C278.149 90.5769 273.529 92.7144 273.446 93.2094C273.364 93.7044 274.331 94.2069 274.331 94.2069Z" fill="#F2F2F2" stroke="#263238" stroke-width="0.5625" stroke-miterlimit="10"/>
<path d="M268.577 89.2496C268.473 89.5119 268.442 89.7974 268.487 90.0759C268.532 90.3545 268.651 90.6157 268.832 90.8321C269.454 91.7021 270.159 95.1446 272.139 95.0471C274.119 94.9496 278.889 92.5796 279.737 91.9571C280.584 91.3346 284.417 85.8221 284.769 85.2821C285.122 84.7421 283.862 83.0321 283.187 82.4621C282.512 81.8921 280.629 82.9796 280.629 82.9796C280.629 82.9796 273.002 88.1096 268.577 89.2496Z" fill="#F2F2F2" stroke="#263238" stroke-width="0.5625" stroke-miterlimit="10"/>
<path d="M266.876 81.5394C266.876 81.5394 271.631 81.6444 272.351 81.4269C273.071 81.2094 278.276 79.6794 278.276 79.6794C278.276 79.6794 279.063 79.5519 279.896 80.7144C280.247 81.2247 280.401 81.845 280.329 82.4602C280.257 83.0754 279.965 83.6436 279.506 84.0594C278.681 84.9519 275.613 88.0194 274.008 88.4394C271.686 88.8176 269.34 89.0282 266.988 89.0694C265.706 89.0694 265.053 88.4019 264.738 86.9919C264.409 85.6516 264 84.3318 263.516 83.0394" fill="#F2F2F2"/>
<path d="M266.876 81.5394C266.876 81.5394 271.631 81.6444 272.351 81.4269C273.071 81.2094 278.276 79.6794 278.276 79.6794C278.276 79.6794 279.063 79.5519 279.896 80.7144C280.247 81.2247 280.401 81.845 280.329 82.4602C280.257 83.0754 279.965 83.6436 279.506 84.0594C278.681 84.9519 275.613 88.0194 274.008 88.4394C271.686 88.8176 269.34 89.0282 266.988 89.0694C265.706 89.0694 265.053 88.4019 264.738 86.9919C264.409 85.6516 264 84.3318 263.516 83.0394" stroke="#263238" stroke-width="0.5625" stroke-miterlimit="10"/>
<path d="M47.8799 248.768C47.8799 248.768 55.9724 246.03 58.3799 244.365C60.7874 242.7 66.9224 236.505 68.3474 231.75C69.6049 227.357 70.4436 222.854 70.8524 218.303C71.2049 214.613 72.7574 213.66 75.0149 216.518C77.2724 219.375 78.0149 224.018 77.3924 227.018C76.7699 230.018 74.8949 233.445 75.1424 234.038C75.3899 234.63 75.7349 235.823 75.7349 235.823C75.7349 235.823 82.9949 234.99 87.0449 234.038C91.0949 233.085 94.3049 232.725 94.5449 234.63C94.7849 236.535 93.9449 239.513 93.7124 241.538C93.4799 243.563 90.3749 252.488 88.8299 254.513C87.728 256.081 86.4496 257.518 85.0199 258.795C84.0674 259.545 84.0674 260.108 81.8099 260.34C79.8914 260.515 77.9837 260.793 76.0949 261.173C75.2624 261.413 74.4299 262.245 70.4999 262.125C68.0275 262.04 65.5628 261.802 63.1199 261.413L51.3374 265.815L47.8799 248.768Z" fill="#F2F2F2" stroke="#263238" stroke-width="0.5625" stroke-miterlimit="10"/>
<path d="M51.6905 246.502L56.5655 267.69L48.593 270.907L44.543 248.887L51.6905 246.502Z" fill="#F2F2F2" stroke="#263238" stroke-width="0.5625" stroke-miterlimit="10"/>
<path d="M31.582 250.553L47.1595 246.743L52.8745 271.973L31.6795 281.865L31.582 279.953V250.553Z" fill="#263238" stroke="#263238" stroke-width="0.5625" stroke-miterlimit="10"/>
<path d="M76.2068 236.865C76.2068 236.865 77.2793 243.293 77.2793 244.838C77.2793 246.383 73.9418 250.553 72.7793 250.793" stroke="#263238" stroke-width="0.5625" stroke-miterlimit="10"/>
<path d="M78.5855 253.05C78.5855 253.05 76.9205 253.65 77.393 255.075C77.8655 256.5 81.443 258.525 83.108 259.478C84.773 260.43 85.358 260.31 87.278 259.238C88.4013 258.621 89.2504 257.603 89.6555 256.388C88.4581 256.359 87.2646 256.238 86.0855 256.028L78.5855 253.05Z" fill="#F2F2F2" stroke="#263238" stroke-width="0.5625" stroke-miterlimit="10"/>
<path d="M92.2505 249.96C92.2505 249.96 92.2505 255.435 90.9455 255.907C89.6957 256.407 88.3615 256.661 87.0155 256.657C86.183 256.537 80.588 254.64 79.5155 253.92C78.443 253.2 77.3705 251.67 77.9705 250.23L78.563 248.805C80.3717 249.115 82.2031 249.273 84.038 249.277C87.038 249.277 92.0105 248.325 92.3705 248.685C92.7305 249.045 92.2505 249.96 92.2505 249.96Z" fill="#F2F2F2" stroke="#263238" stroke-width="0.5625" stroke-miterlimit="10"/>
<path d="M94.0574 242.58C94.305 242.722 94.507 242.931 94.6398 243.183C94.7727 243.436 94.8308 243.721 94.8074 244.005C94.8074 245.078 96.2399 248.288 94.5749 249.36C92.9099 250.433 87.6299 251.25 86.5574 251.25C85.4849 251.25 79.1774 249 78.5849 248.753C77.9924 248.505 77.9924 246.368 78.2324 245.535C78.4724 244.703 80.6099 244.47 80.6099 244.47C80.6099 244.47 89.7749 244.245 94.0574 242.58Z" fill="#F2F2F2" stroke="#263238" stroke-width="0.5625" stroke-miterlimit="10"/>
<path d="M90.9659 235.32C90.9659 235.32 87.1559 238.17 86.4659 238.41C85.7759 238.65 80.6309 240.435 80.6309 240.435C80.6309 240.435 79.8809 240.795 79.8809 242.22C79.8924 242.837 80.1264 243.43 80.5397 243.889C80.953 244.347 81.518 244.642 82.1309 244.717C83.3234 244.957 87.6059 245.67 89.1584 245.077C91.2732 244.035 93.3087 242.84 95.2484 241.5C96.3209 240.787 96.4409 239.835 95.8409 238.5C95.3294 237.216 94.8937 235.904 94.5359 234.57" fill="#F2F2F2"/>
<path d="M90.9659 235.32C90.9659 235.32 87.1559 238.17 86.4659 238.41C85.7759 238.65 80.6309 240.435 80.6309 240.435C80.6309 240.435 79.8809 240.795 79.8809 242.22C79.8924 242.837 80.1264 243.43 80.5397 243.889C80.953 244.347 81.518 244.642 82.1309 244.717C83.3234 244.957 87.6059 245.67 89.1584 245.077C91.2732 244.035 93.3087 242.84 95.2484 241.5C96.3209 240.787 96.4409 239.835 95.8409 238.5C95.3294 237.216 94.8937 235.904 94.5359 234.57" stroke="#263238" stroke-width="0.5625" stroke-miterlimit="10"/>
<path d="M56.677 74.5347C56.677 74.5347 64.852 77.0172 67.762 77.0472C70.672 77.0772 79.297 75.6447 83.2345 72.5997C86.8104 69.7568 90.1101 66.5827 93.0895 63.1197C95.527 60.3222 97.342 60.4497 97.5145 64.0872C97.687 67.7247 95.572 71.9172 93.3595 73.9947C91.147 76.0722 87.5845 77.7447 87.4345 78.3897C87.2845 79.0347 86.8795 80.1897 86.8795 80.1897C86.8795 80.1897 93.2695 83.7297 97.117 85.3122C100.965 86.8947 103.785 88.4697 102.87 90.1572C101.955 91.8447 99.547 93.7797 98.1745 95.2872C96.802 96.7947 89.092 102.255 86.6545 103.005C84.8457 103.636 82.9713 104.062 81.067 104.272C79.8745 104.272 79.567 104.782 77.5495 103.657C75.8882 102.683 74.1757 101.8 72.4195 101.01C71.602 100.725 70.4395 100.912 67.312 98.5347C65.3536 97.026 63.4901 95.3979 61.732 93.6597L49.582 90.3822L56.677 74.5347Z" fill="#F2F2F2" stroke="#263238" stroke-width="0.5625" stroke-miterlimit="10"/>
<path d="M61.0935 74.9095L52.731 94.9795L44.376 92.9545L53.901 72.6895L61.0935 74.9095Z" fill="#F2F2F2" stroke="#263238" stroke-width="0.5625" stroke-miterlimit="10"/>
<path d="M42.3886 66.5098L57.2761 72.4723L47.2411 96.3148L24.2461 92.0248L25.2811 90.4123L42.3886 66.5098Z" fill="#263238" stroke="#263238" stroke-width="0.5625" stroke-miterlimit="10"/>
<path d="M86.6459 81.3369C86.6459 81.3369 83.7734 87.1869 82.8959 88.4394C82.0184 89.6919 76.8959 91.1469 75.7559 90.6894" stroke="#263238" stroke-width="0.5625" stroke-miterlimit="10"/>
<path d="M79.1618 95.8871C79.1618 95.8871 77.4593 95.3996 77.0168 96.8396C76.5743 98.2796 78.2993 102 79.1018 103.74C79.9043 105.48 80.4518 105.735 82.6268 105.99C83.9016 106.136 85.1854 105.802 86.2268 105.052C85.2683 104.331 84.3657 103.539 83.5268 102.682L79.1618 95.8871Z" fill="#F2F2F2" stroke="#263238" stroke-width="0.5625" stroke-miterlimit="10"/>
<path d="M92.0898 101.332C92.0898 101.332 88.9023 105.787 87.5898 105.412C86.2868 105.078 85.0597 104.497 83.9748 103.702C83.3673 103.124 79.9248 98.3169 79.4748 97.1169C79.0248 95.9169 79.0548 94.0269 80.3673 93.2169L81.6798 92.3994C82.9679 93.7064 84.3655 94.9008 85.8573 95.9694C88.2798 97.7019 92.8998 99.8394 92.9823 100.334C93.0648 100.829 92.0898 101.332 92.0898 101.332Z" fill="#F2F2F2" stroke="#263238" stroke-width="0.5625" stroke-miterlimit="10"/>
<path d="M97.836 96.3672C97.9425 96.6285 97.9757 96.914 97.9321 97.1928C97.8885 97.4716 97.7697 97.7333 97.5885 97.9497C96.966 98.8197 96.2535 102.262 94.281 102.165C92.3085 102.067 87.531 99.6972 86.6835 99.0747C85.836 98.4522 81.996 92.9397 81.651 92.3997C81.306 91.8597 82.551 90.1497 83.2335 89.5797C83.916 89.0097 85.791 90.0897 85.791 90.0897C85.791 90.0897 93.381 95.2497 97.836 96.3672Z" fill="#F2F2F2" stroke="#263238" stroke-width="0.5625" stroke-miterlimit="10"/>
<path d="M99.5452 88.665C99.5452 88.665 94.7827 88.77 94.0627 88.5525C93.3427 88.335 88.1452 86.7975 88.1452 86.7975C88.1452 86.7975 87.3952 86.6775 86.5252 87.84C86.1748 88.3499 86.0205 88.9693 86.0908 89.584C86.1611 90.1987 86.4512 90.7673 86.9077 91.185C87.7402 92.07 90.8077 95.145 92.4127 95.565C94.7342 95.9446 97.0806 96.1527 99.4327 96.1875C100.715 96.2325 101.368 95.5275 101.645 94.1175C101.975 92.7748 102.383 91.4525 102.868 90.1575" fill="#F2F2F2"/>
<path d="M99.5452 88.665C99.5452 88.665 94.7827 88.77 94.0627 88.5525C93.3427 88.335 88.1452 86.7975 88.1452 86.7975C88.1452 86.7975 87.3952 86.6775 86.5252 87.84C86.1748 88.3499 86.0205 88.9693 86.0908 89.584C86.1611 90.1987 86.4512 90.7673 86.9077 91.185C87.7402 92.07 90.8077 95.145 92.4127 95.565C94.7342 95.9446 97.0806 96.1527 99.4327 96.1875C100.715 96.2325 101.368 95.5275 101.645 94.1175C101.975 92.7748 102.383 91.4525 102.868 90.1575" stroke="#263238" stroke-width="0.5625" stroke-miterlimit="10"/>
<path d="M166.5 183.262C166.5 183.262 161.25 206.257 161.04 217.072C160.83 227.887 161.43 266.864 161.632 275.227C161.835 283.589 165.51 310.732 165.51 313.177C165.51 315.622 166.125 320.317 166.125 320.317L164.49 329.092C162.89 330.328 161.183 331.42 159.39 332.354C155.715 334.394 151.432 337.049 150.21 338.474C150.061 338.646 149.955 338.85 149.902 339.071C149.849 339.292 149.849 339.522 149.904 339.743C149.958 339.964 150.065 340.168 150.214 340.339C150.364 340.509 150.553 340.641 150.765 340.724C152.219 341.294 153.751 341.64 155.31 341.752C158.775 341.954 164.49 341.954 167.55 341.137C170.61 340.319 173.062 337.672 174.487 336.637L175.92 335.617L176.122 337.867C176.809 337.766 177.49 337.628 178.162 337.454C179.659 337.023 181.098 336.408 182.445 335.624C182.445 335.624 182.647 332.152 182.647 330.112C182.647 328.072 181.627 324.397 181.425 323.587C181.222 322.777 181.425 315.419 180.817 312.974C180.21 310.529 179.797 311.137 179.385 306.652C178.972 302.167 182.647 259.717 182.445 258.494C182.242 257.272 187.635 220.499 187.635 220.499C187.635 220.499 197.947 268.499 201.21 277.687C204.472 286.874 206.107 304.619 206.107 305.849C206.107 307.079 207.945 321.554 208.762 323.602C209.58 325.649 211.822 331.964 211.822 331.964C211.822 331.964 215.085 336.862 216.51 339.307C217.935 341.752 222.84 343.807 226.507 344.407C230.175 345.007 233.04 345.224 233.257 340.327C233.475 335.429 231.63 332.167 228.562 329.924C225.495 327.682 224.895 325.642 224.895 325.642C225.117 322.646 225.117 319.637 224.895 316.642C224.482 313.169 222.24 310.514 222.037 303.374C221.835 296.234 220.402 258.689 219.18 252.772C217.957 246.854 216.345 207.269 216.547 201.772C216.75 196.274 216.03 180.914 216.03 180.914L166.35 180.352L166.5 183.262Z" fill="#263238" stroke="#263238" stroke-width="0.5625" stroke-miterlimit="10"/>
<path d="M186.001 101.054C186.001 101.054 178.419 105.554 173.049 108.209C167.679 110.864 161.124 112.409 160.456 113.917C159.789 115.424 148.201 140.114 146.019 143.467C143.836 146.819 138.631 153.374 139.636 157.064C140.641 160.754 144.841 165.794 147.526 165.464C150.211 165.134 155.589 163.612 157.771 159.757C159.954 155.902 165.159 143.467 165.159 143.467C165.159 143.467 165.999 155.054 165.826 160.762C165.654 166.469 165.661 171.172 165.324 174.022C164.986 176.872 163.479 180.404 164.146 181.409C164.814 182.414 165.646 183.427 166.501 183.262C167.356 183.097 179.934 182.924 183.751 183.089C187.569 183.254 205.074 183.089 208.771 183.262C212.469 183.434 215.656 181.582 215.986 180.907C216.316 180.232 216.999 179.227 216.661 175.537C216.324 171.847 216.999 160.597 218.004 156.232C219.009 151.867 225.054 135.074 225.054 135.074C225.054 135.074 241.006 147.667 244.366 148.672C247.726 149.677 256.786 148.169 259.809 144.479C262.831 140.789 263.836 137.924 261.991 135.412C260.146 132.899 253.426 130.544 246.376 122.984C239.326 115.424 236.626 111.907 231.774 109.552C226.921 107.197 216.999 104.017 214.644 103.004C212.289 101.992 211.644 101.504 210.144 100.822C208.644 100.139 205.104 98.8117 198.556 98.6392C194.256 98.6398 189.995 99.4594 186.001 101.054Z" fill="url(#paint3_radial_118_1028)" stroke="#263238" stroke-width="0.5625" stroke-miterlimit="10"/>
<path d="M161.768 131.572C162 132.382 165.15 143.467 165.15 143.467L160.5 134.249" stroke="#263238" stroke-width="0.5625" stroke-miterlimit="10"/>
<path d="M225.085 135.074C224.387 135.074 217.787 131.324 217.787 131.324" stroke="#263238" stroke-width="0.5625" stroke-miterlimit="10"/>
<path d="M214.427 130.882C214.427 130.882 217.089 134.354 219.407 135.044" stroke="#263238" stroke-width="0.5625" stroke-miterlimit="10"/>
<path d="M185.056 111.352L187.163 119.31C187.163 119.31 180.488 152.677 179.438 158.31C178.799 161.713 178.368 165.152 178.148 168.607L183.998 180.195L191.378 167.67C191.378 167.67 190.673 151.867 190.441 139.23C190.208 126.592 190.673 120.48 190.553 120.15C190.433 119.82 197.933 114.292 197.933 114.292C197.933 114.292 202.261 109.492 202.493 108.675C202.726 107.857 199.456 108.907 198.743 109.612C197.946 110.287 197.001 110.766 195.985 111.009C194.969 111.253 193.91 111.255 192.893 111.015C189.848 110.43 185.866 107.04 185.281 108.675C184.931 109.523 184.852 110.458 185.056 111.352Z" fill="#263238" stroke="#263238" stroke-width="0.5625" stroke-miterlimit="10"/>
<path d="M190.089 97.777C189.737 98.0095 186.932 98.7145 185.994 101.054C185.057 103.394 180.257 114.164 178.854 115.919C177.452 117.674 179.672 116.969 181.547 115.799C183.422 114.629 185.057 110.069 186.107 112.049C187.157 114.029 190.209 114.854 190.209 114.854C190.209 114.854 196.524 113.684 197.934 112.747C198.895 112.076 199.796 111.323 200.627 110.497C200.627 110.497 206.012 118.574 207.527 119.272C209.042 119.969 209.289 118.807 209.402 117.517C209.956 112.815 210.856 108.16 212.094 103.589C213.594 98.557 210.692 96.9145 208.817 94.8145C206.942 92.7145 204.834 94.1095 202.734 94.342C200.634 94.5745 190.089 97.777 190.089 97.777Z" fill="url(#paint4_radial_118_1028)" stroke="#263238" stroke-width="0.5625" stroke-miterlimit="10"/>
<path d="M186.88 61.7319C186.88 61.7319 183.22 67.2894 183.88 68.6394C184.54 69.9894 184.555 71.7594 183.88 72.7044C183.37 73.3257 182.997 74.0479 182.786 74.8235C182.576 75.5991 182.532 76.4105 182.657 77.2044C182.927 79.5069 181.577 91.1544 183.61 92.5119C184.917 93.3622 186.325 94.045 187.802 94.5444C187.802 94.5444 190.105 114.044 190.922 113.504C191.74 112.964 203.402 101.017 204.752 98.4369C206.102 95.8569 207.752 92.2119 207.752 92.2119C207.752 92.2119 212.357 83.4069 215.065 79.7469C217.772 76.0869 220.892 69.3219 219.947 65.7969C219.002 62.2719 214.12 59.6994 211.817 57.8019C209.515 55.9044 211.007 51.5769 207.752 49.4094C204.497 47.2419 200.575 46.7019 198.002 47.6469C195.43 48.5919 195.295 50.6469 192.175 48.5919C189.055 46.5369 186.085 44.5344 181.345 46.8369C176.605 49.1394 175.652 57.2619 178.495 59.4294C181.337 61.5969 186.88 61.7319 186.88 61.7319Z" fill="#F2F2F2" stroke="#263238" stroke-width="0.5625" stroke-miterlimit="10"/>
<path d="M211.8 57.8019C209.497 55.9119 210.99 51.5769 207.735 49.4094C204.48 47.2419 200.557 46.7019 197.985 47.6469C195.412 48.5919 195.277 50.6469 192.157 48.5919C189.037 46.5369 186.067 44.5344 181.327 46.8369C176.587 49.1394 175.635 57.2619 178.477 59.4294C181.32 61.5969 186.877 61.7319 186.877 61.7319C186.877 61.7319 190.942 59.8344 193.627 58.3494C196.312 56.8644 202.432 59.2944 203.512 60.2469C204.592 61.1994 202.972 60.5169 202.702 62.2719C202.432 64.0269 205.815 66.8844 207.307 68.2719C208.8 69.6594 207.037 70.5744 206.632 72.3369C206.227 74.0994 207.847 74.7744 208.8 74.0994C209.752 73.4244 212.722 69.5994 213.81 71.7969C214.897 73.9944 216.517 77.2119 213.54 79.5144C210.562 81.8169 208.387 81.2769 208.387 81.2769C208.387 81.2769 207.42 87.1419 210.232 87.5994C211.692 84.9126 213.292 82.304 215.025 79.7844C217.74 76.1319 220.852 69.3594 219.907 65.8344C218.962 62.3094 214.102 59.6994 211.8 57.8019Z" fill="#263238" stroke="#263238" stroke-width="0.5625" stroke-miterlimit="10"/>
<path d="M194.191 68.9096C195.056 68.5871 195.978 68.4491 196.899 68.5046" stroke="#263238" stroke-width="0.375" stroke-miterlimit="10"/>
<path d="M187.261 70.2446C186.592 70.3861 185.946 70.6182 185.341 70.9346" stroke="#263238" stroke-width="0.375" stroke-miterlimit="10"/>
<path d="M187.306 66.5469C187.787 67.4689 187.928 68.5313 187.703 69.5469C187.261 71.0469 183.068 74.3244 183.121 74.9619C183.173 75.5994 185.581 76.9344 185.536 77.4744C185.491 78.0144 185.341 78.9069 185.341 78.9069" stroke="#263238" stroke-width="0.5625" stroke-miterlimit="10"/>
<path d="M196.471 70.7844C196.96 70.7844 197.356 70.2975 197.356 69.6969C197.356 69.0963 196.96 68.6094 196.471 68.6094C195.982 68.6094 195.586 69.0963 195.586 69.6969C195.586 70.2975 195.982 70.7844 196.471 70.7844Z" fill="#263238" stroke="#263238" stroke-width="0.375" stroke-miterlimit="10"/>
<path d="M194.745 71.4743C195.936 70.9757 197.205 70.6913 198.495 70.6343" stroke="#263238" stroke-width="0.5625" stroke-miterlimit="10"/>
<path d="M191.619 64.9497C191.619 64.9497 194.522 62.2572 196.772 62.7972C199.022 63.3372 199.877 65.5047 199.517 65.5122C199.157 65.5197 198.017 63.8472 196.787 63.7197C195.557 63.5922 194.679 64.1772 193.614 64.7172C192.549 65.2572 191.897 65.6322 191.619 64.9497Z" fill="#263238" stroke="#263238" stroke-width="0.375" stroke-miterlimit="10"/>
<path d="M187.501 67.0869C187.468 66.9038 187.396 66.7299 187.291 66.5763C187.186 66.4227 187.05 66.2929 186.891 66.1953C186.733 66.0977 186.556 66.0345 186.371 66.0098C186.187 65.9851 186 65.9994 185.821 66.0519C184.493 66.2544 183.489 68.6694 183.894 68.6394C184.299 68.6094 184.741 67.0869 185.776 66.9444C186.811 66.8019 187.501 68.4219 187.501 67.0869Z" fill="#263238" stroke="#263238" stroke-width="0.375" stroke-miterlimit="10"/>
<path d="M185.25 81.9666C185.25 81.9666 187.372 81.7191 190.132 81.3741C192.892 81.0291 196.778 80.4891 197.423 78.5166C197.79 77.5609 197.956 76.5395 197.91 75.5166" stroke="#263238" stroke-width="0.5625" stroke-miterlimit="10"/>
<path d="M196.418 75.367C197.226 75.3009 198.039 75.3514 198.833 75.517" stroke="#263238" stroke-width="0.5625" stroke-miterlimit="10"/>
<path d="M207.788 85.1016C207.4 86.9298 206.326 88.5401 204.788 89.6016C202.328 91.1691 184.26 92.9616 184.86 93.1866C185.46 93.4116 187.808 94.5366 187.808 94.5366L188.513 100.949C191.358 98.4301 194.523 96.2968 197.925 94.6041C203.91 91.4991 207.645 90.4716 207.788 85.1016Z" fill="#263238" stroke="#263238" stroke-width="0.375" stroke-miterlimit="10"/>
<path d="M217.869 172.68C217.869 172.68 214.509 172.515 213.669 172.35C212.829 172.185 210.144 169.657 208.967 169.83C207.789 170.002 205.614 172.35 204.774 174.33C203.934 176.31 203.597 177.33 203.597 177.33C203.597 177.33 200.597 180.015 202.097 181.83C203.597 183.645 205.292 183.007 205.292 183.007C205.292 183.007 206.297 184.687 207.639 184.852C208.636 184.963 209.637 185.02 210.639 185.025C211.508 185.291 212.417 185.405 213.324 185.362C214.041 185.205 214.725 184.92 215.342 184.522C216.054 184.605 216.772 184.424 217.359 184.012C217.974 183.525 220.952 180.48 222.489 178.912L223.397 177.975L217.869 172.68Z" fill="#F2F2F2" stroke="#263238" stroke-width="0.5625" stroke-miterlimit="10"/>
<path d="M245.904 138.097C245.904 138.097 239.694 144.982 237.654 148.334C234.403 153.45 230.873 158.382 227.079 163.109C224.731 165.794 216.504 172.349 216.504 172.349C216.504 172.349 219.016 177.719 220.869 178.559C221.947 179.055 223.069 179.447 224.221 179.729L230.971 174.697C230.971 174.697 243.721 164.947 250.471 159.419C257.221 153.892 266.589 146.489 267.264 143.302C267.939 140.114 267.429 138.434 264.076 135.914C261.99 134.37 259.664 133.179 257.191 132.389" fill="url(#paint5_radial_118_1028)"/>
<path d="M245.904 138.097C245.904 138.097 239.694 144.982 237.654 148.334C234.403 153.45 230.873 158.382 227.079 163.109C224.731 165.794 216.504 172.349 216.504 172.349C216.504 172.349 219.016 177.719 220.869 178.559C221.947 179.055 223.069 179.447 224.221 179.729L230.971 174.697C230.971 174.697 243.721 164.947 250.471 159.419C257.221 153.892 266.589 146.489 267.264 143.302C267.939 140.114 267.429 138.434 264.076 135.914C261.99 134.37 259.664 133.179 257.191 132.389" stroke="#263238" stroke-width="0.5625" stroke-miterlimit="10"/>
<path d="M221.73 168.149C221.73 168.149 223.23 175.537 228.443 175.537" stroke="#263238" stroke-width="0.5625" stroke-miterlimit="10"/>
<path d="M148.576 113.752C148.576 113.752 149.266 119.654 149.618 122.317C149.719 123.659 150.113 124.962 150.773 126.134C150.773 126.134 145.336 138.284 145.103 138.637C144.871 138.989 139.201 149.632 138.271 150.899C137.341 152.167 135.151 156.224 136.538 158.774C137.926 161.324 140.123 166.529 143.018 166.642C145.913 166.754 149.963 165.022 152.768 163.402C155.573 161.782 156.473 160.739 156.706 156.112C156.938 151.484 156.818 143.152 157.636 138.749C158.453 134.347 159.023 129.749 159.601 127.987C160.178 126.224 163.538 126.832 164.693 126.134C165.848 125.437 166.891 123.937 168.976 123.007C170.784 122.319 172.751 122.161 174.646 122.549C175.343 122.782 176.611 121.739 176.266 120.464C175.921 119.189 173.603 118.499 171.286 118.724C168.968 118.949 166.891 119.654 166.313 119.309C165.736 118.964 165.158 112.822 165.158 112.822C165.158 112.822 156.908 113.519 154.043 113.632C151.178 113.744 148.576 113.752 148.576 113.752Z" fill="#F2F2F2" stroke="#263238" stroke-width="0.5625" stroke-miterlimit="10"/>
<path d="M161.303 109.236C161.303 109.236 161.423 116.879 161.423 117.569C161.424 117.73 161.459 117.889 161.525 118.036C161.59 118.183 161.686 118.314 161.805 118.423C161.924 118.531 162.064 118.614 162.216 118.666C162.368 118.717 162.53 118.737 162.69 118.724C163.275 118.611 164.775 119.189 165.128 117.456C165.48 115.724 166.163 110.856 165.818 109.701C165.473 108.546 162.345 108.081 161.303 109.236Z" fill="#F2F2F2" stroke="#263238" stroke-width="0.5625" stroke-miterlimit="10"/>
<path d="M161.302 109.237C161.302 109.237 157.605 108.315 156.562 108.892C155.52 109.47 157.14 117.69 157.252 118.38C157.365 119.07 158.992 119.422 159.682 119.19C160.372 118.957 161.422 118.5 161.422 117.57C161.422 116.64 161.302 109.237 161.302 109.237Z" fill="#F2F2F2" stroke="#263238" stroke-width="0.5625" stroke-miterlimit="10"/>
<path d="M155.755 109.124C155.755 109.124 153.325 108.659 152.627 109.469C151.93 110.279 151.705 111.434 151.93 113.519C152.236 115.571 152.861 117.563 153.782 119.422C154.247 120.119 155.755 120.232 156.677 119.887C157.6 119.542 157.255 118.387 157.255 118.387C157.255 118.387 156.79 117.922 156.677 114.337C156.565 110.752 156.565 108.899 156.565 108.899L155.755 109.124Z" fill="#F2F2F2" stroke="#263238" stroke-width="0.5625" stroke-miterlimit="10"/>
<path d="M151.703 110.512C151.238 110.624 148.343 110.744 148.23 111.899C148.118 113.054 149.153 118.499 149.618 119.077C150.083 119.654 151.35 119.422 151.815 119.189C152.28 118.957 153.09 118.612 152.97 117.914C152.85 117.217 151.703 110.512 151.703 110.512Z" fill="#F2F2F2" stroke="#263238" stroke-width="0.5625" stroke-miterlimit="10"/>
<path d="M152.627 133.424C151.795 133.291 151.013 132.945 150.355 132.419C149.698 131.893 149.188 131.206 148.877 130.424C147.287 133.964 145.262 138.441 145.127 138.674C144.894 139.019 139.224 149.669 138.294 150.936C137.364 152.204 135.174 156.261 136.562 158.811C137.949 161.361 140.147 166.566 143.042 166.679C145.937 166.791 149.987 165.059 152.792 163.439C155.597 161.819 156.497 160.776 156.729 156.149C156.962 151.521 156.842 143.189 157.659 138.786C158.049 136.626 158.409 134.421 158.709 132.516C156.756 133.196 154.693 133.504 152.627 133.424Z" fill="url(#paint6_radial_118_1028)" stroke="#263238" stroke-width="0.5625" stroke-miterlimit="10"/>
<path d="M157.951 120.697C157.951 120.697 155.979 122.429 155.754 123.937C155.637 124.9 155.84 125.875 156.331 126.712" fill="#F2F2F2"/>
<path d="M157.951 120.697C157.951 120.697 155.979 122.429 155.754 123.937C155.637 124.9 155.84 125.875 156.331 126.712" stroke="#263238" stroke-width="0.5625" stroke-miterlimit="10"/>
<defs>
<radialGradient id="paint0_radial_118_1028" cx="0" cy="0" r="1" gradientUnits="userSpaceOnUse" gradientTransform="translate(183.448 170.121) rotate(90) scale(156.006 423.437)">
<stop stop-color="#1C1C1C" stop-opacity="0.88"/>
<stop offset="1" stop-color="#0D0D0D"/>
</radialGradient>
<radialGradient id="paint1_radial_118_1028" cx="0" cy="0" r="1" gradientUnits="userSpaceOnUse" gradientTransform="translate(186.197 344.325) rotate(90) scale(14.0325 278.659)">
<stop stop-color="#1C1C1C" stop-opacity="0.88"/>
<stop offset="1" stop-color="#0D0D0D"/>
</radialGradient>
<radialGradient id="paint2_radial_118_1028" cx="0" cy="0" r="1" gradientUnits="userSpaceOnUse" gradientTransform="translate(183.382 170.128) rotate(90) scale(156.014 423.252)">
<stop stop-color="#1C1C1C" stop-opacity="0.88"/>
<stop offset="1" stop-color="#0D0D0D"/>
</radialGradient>
<radialGradient id="paint3_radial_118_1028" cx="0" cy="0" r="1" gradientUnits="userSpaceOnUse" gradientTransform="translate(201.213 140.959) rotate(90) scale(42.3201 149.462)">
<stop stop-color="#1C1C1C" stop-opacity="0.88"/>
<stop offset="1" stop-color="#0D0D0D"/>
</radialGradient>
<radialGradient id="paint4_radial_118_1028" cx="0" cy="0" r="1" gradientUnits="userSpaceOnUse" gradientTransform="translate(195.461 106.577) rotate(90) scale(12.9043 41.2959)">
<stop stop-color="#1C1C1C" stop-opacity="0.88"/>
<stop offset="1" stop-color="#0D0D0D"/>
</radialGradient>
<radialGradient id="paint5_radial_118_1028" cx="0" cy="0" r="1" gradientUnits="userSpaceOnUse" gradientTransform="translate(242.013 156.059) rotate(90) scale(23.67 61.7889)">
<stop stop-color="#1C1C1C" stop-opacity="0.88"/>
<stop offset="1" stop-color="#0D0D0D"/>
</radialGradient>
<radialGradient id="paint6_radial_118_1028" cx="0" cy="0" r="1" gradientUnits="userSpaceOnUse" gradientTransform="translate(147.411 148.554) rotate(90) scale(18.1301 27.3663)">
<stop stop-color="#1C1C1C" stop-opacity="0.88"/>
<stop offset="1" stop-color="#0D0D0D"/>
</radialGradient>
</defs>
</svg>
