<svg width="375" height="375" viewBox="0 0 375 375" fill="none" xmlns="http://www.w3.org/2000/svg">
<path d="M307.835 109.221H262.242V120.879H307.835V109.221Z" fill="#F2F2F2"/>
<path d="M288.576 133.153C288.572 133.149 288.567 133.078 288.562 132.941C288.558 132.785 288.553 132.589 288.547 132.343C288.539 131.794 288.528 131.029 288.513 130.049C288.495 128.037 288.468 125.143 288.435 121.495L288.576 121.632C278.166 121.652 261.609 121.684 242.985 121.72C243.088 121.62 242.751 121.944 243.215 121.495V121.499V121.505V121.517V121.54V121.588V121.681V121.869V122.243V122.991C243.215 123.488 243.215 123.984 243.215 124.478C243.215 125.467 243.214 126.447 243.214 127.42C243.213 129.366 243.212 131.28 243.21 133.154L242.983 132.935C255.966 132.975 267.326 133.009 275.474 133.035C279.532 133.061 282.789 133.083 285.064 133.097C286.17 133.109 287.037 133.119 287.658 133.126C287.937 133.132 288.16 133.136 288.336 133.14C288.49 133.144 288.571 133.149 288.576 133.153C288.582 133.158 288.51 133.163 288.366 133.168C288.197 133.171 287.983 133.176 287.715 133.182C287.107 133.189 286.257 133.198 285.171 133.211C282.909 133.226 279.67 133.247 275.634 133.273C267.446 133.298 256.03 133.333 242.985 133.373L242.757 133.374V133.153C242.756 131.279 242.755 129.365 242.754 127.42C242.754 126.447 242.753 125.466 242.753 124.477C242.753 123.983 242.753 123.487 242.753 122.99V122.242V121.868V121.681V121.587V121.54V121.516V121.504V121.499V121.496C243.218 121.047 242.883 121.372 242.988 121.271C261.612 121.307 278.169 121.339 288.579 121.359H288.721L288.72 121.495C288.687 125.178 288.66 128.098 288.642 130.13C288.627 131.098 288.615 131.853 288.607 132.394C288.601 132.629 288.596 132.818 288.592 132.967C288.585 133.096 288.581 133.158 288.576 133.153Z" fill="#F2F2F2"/>
<path d="M113.753 158.724H68.1602V170.382H113.753V158.724Z" fill="#F2F2F2"/>
<path d="M94.469 182.664C94.4645 182.66 94.46 182.589 94.4548 182.452C94.451 182.296 94.4458 182.1 94.4398 181.854C94.4315 181.306 94.4203 180.541 94.4053 179.56C94.3873 177.548 94.3603 174.654 94.3273 171.006L94.4683 171.143C84.0575 171.163 67.502 171.195 48.878 171.231C48.9808 171.131 48.644 171.455 49.1075 171.006V171.009V171.015V171.027V171.051V171.098V171.192V171.379V171.753V172.501C49.1075 172.998 49.1075 173.494 49.1075 173.988C49.1075 174.976 49.1068 175.957 49.1068 176.931C49.1053 178.876 49.1038 180.79 49.103 182.664L48.8758 182.445C61.8583 182.485 73.2185 182.52 81.3665 182.545C85.4248 182.571 88.682 182.593 90.9568 182.607C92.063 182.62 92.93 182.629 93.5503 182.636C93.8293 182.642 94.0528 182.646 94.2283 182.65C94.3828 182.655 94.4638 182.659 94.469 182.664C94.4743 182.669 94.4023 182.674 94.2583 182.679C94.0895 182.682 93.8758 182.687 93.608 182.693C92.9998 182.7 92.1493 182.709 91.064 182.722C88.8013 182.737 85.5628 182.758 81.5263 182.784C73.3385 182.809 61.9228 182.844 48.8773 182.884L48.65 182.885V182.664C48.6485 180.79 48.6478 178.876 48.6463 176.931C48.6463 175.958 48.6455 174.977 48.6455 173.988C48.6455 173.494 48.6455 172.998 48.6455 172.501V171.753V171.379V171.192V171.098V171.051V171.027V171.015V171.009V171.006C49.1105 170.557 48.776 170.882 48.8803 170.781C67.5043 170.817 84.0605 170.849 94.4705 170.869H94.613L94.6115 171.006C94.5785 174.688 94.5515 177.609 94.5335 179.64C94.5193 180.608 94.5073 181.363 94.499 181.904C94.493 182.139 94.4878 182.328 94.484 182.478C94.478 182.607 94.4735 182.669 94.469 182.664Z" fill="#F2F2F2"/>
<path d="M213.068 34.0117H164.759V45.8572H213.068V34.0117Z" fill="#F2F2F2"/>
<path d="M195.665 281.049H147.356V292.894H195.665V281.049Z" fill="#F2F2F2"/>
<path d="M109.665 274.773H61.3564V286.619H109.665V274.773Z" fill="#F2F2F2"/>
<path d="M78.2022 72.2476C78.1977 72.2423 78.1924 72.1651 78.1872 72.0166C78.1834 71.8463 78.1782 71.6326 78.1714 71.3648C78.1624 70.7671 78.1504 69.9338 78.1354 68.8651C78.1159 66.6721 78.0882 63.5191 78.0537 59.5448L78.2014 59.6933C67.3092 59.7151 49.9857 59.7503 30.4984 59.7893C30.6064 59.6806 30.2532 60.0338 30.7384 59.5448V59.5478V59.5538V59.5666V59.5921V59.6431V59.7451V59.9491V60.3571V61.1716C30.7384 61.7138 30.7384 62.2538 30.7384 62.7916C30.7377 63.8686 30.7377 64.9373 30.7369 65.9971C30.7354 68.1173 30.7339 70.2023 30.7332 72.2453L30.4954 72.0061C44.0802 72.0496 55.9662 72.0878 64.4922 72.1148C68.7387 72.1441 72.1467 72.1673 74.5272 72.1831C75.6852 72.1966 76.5919 72.2071 77.2407 72.2146C77.5324 72.2206 77.7664 72.2258 77.9502 72.2296C78.1122 72.2371 78.1969 72.2423 78.2022 72.2476C78.2074 72.2528 78.1324 72.2581 77.9809 72.2633C77.8047 72.2671 77.5804 72.2723 77.3007 72.2783C76.6639 72.2858 75.7744 72.2963 74.6382 72.3098C72.2712 72.3256 68.8819 72.3488 64.6587 72.3781C56.0914 72.4051 44.1469 72.4433 30.4962 72.4868L30.2584 72.4876V72.2476C30.2569 70.2053 30.2562 68.1196 30.2547 65.9993C30.2547 64.9396 30.2539 63.8701 30.2539 62.7938C30.2539 62.2561 30.2539 61.7153 30.2539 61.1738V60.3593V59.9513V59.7473V59.6453V59.5943V59.5688V59.5561V59.5501V59.5471C30.7399 59.0573 30.3904 59.4113 30.4999 59.3018C49.9872 59.3408 67.3107 59.3753 78.2029 59.3978H78.3522L78.3514 59.5463C78.3162 63.5588 78.2884 66.7411 78.2697 68.9551C78.2539 70.0096 78.2427 70.8316 78.2337 71.4218C78.2269 71.6783 78.2224 71.8838 78.2179 72.0473C78.2119 72.1846 78.2074 72.2528 78.2022 72.2476Z" fill="#F2F2F2"/>
<path d="M84.6846 59.5445C84.6786 59.5385 84.6726 59.4568 84.6666 59.303C84.6613 59.1208 84.6553 58.8995 84.6478 58.6295C84.6373 58.0048 84.6231 57.155 84.6043 56.0825C84.5818 53.855 84.5496 50.7095 84.5098 46.8418L84.6846 47.0173C77.2596 47.0353 67.1571 47.0593 56.0233 47.0863C55.8051 47.3045 56.3166 46.7885 56.2641 46.8425V46.8455V46.8523V46.8658V46.892V46.9438V47.048V47.2565V47.6728V48.503C56.2641 49.055 56.2641 49.6048 56.2633 50.1508C56.2626 51.2428 56.2618 52.3213 56.2611 53.384C56.2581 55.5088 56.2551 57.569 56.2528 59.543L56.0218 59.3105C64.2966 59.3548 71.4201 59.3938 76.5261 59.4208C79.0438 59.4478 81.0621 59.4695 82.4991 59.4853C83.1703 59.4973 83.7043 59.507 84.1101 59.5145C84.4776 59.5258 84.6748 59.5355 84.6846 59.5445C84.6943 59.5543 84.5158 59.5633 84.1641 59.573C83.7703 59.5805 83.2521 59.5903 82.6011 59.6023C81.1776 59.618 79.1773 59.6398 76.6813 59.6668C71.5371 59.6945 64.3588 59.7328 56.0211 59.777L55.7901 59.7785L55.7893 59.5445C55.7863 57.5705 55.7833 55.5103 55.7803 53.3855C55.7796 52.3228 55.7788 51.2443 55.7781 50.1523C55.7781 49.6063 55.7781 49.0573 55.7773 48.5045V47.6743V47.258V47.0495V46.9453V46.8935V46.8673V46.8538V46.847V46.844C55.7241 46.8958 56.2386 46.3798 56.0226 46.598C67.1563 46.625 77.2581 46.649 84.6838 46.667L84.8608 46.6678L84.8586 46.8433C84.8188 50.756 84.7873 53.9375 84.7648 56.1913C84.7461 57.2465 84.7318 58.0835 84.7213 58.6985C84.7086 59.2655 84.6966 59.5573 84.6846 59.5445Z" fill="#F2F2F2"/>
<path d="M219.689 214.347C219.684 214.342 219.679 214.265 219.674 214.116C219.67 213.946 219.665 213.732 219.658 213.464C219.649 212.867 219.637 212.033 219.622 210.965C219.603 208.772 219.575 205.619 219.54 201.644L219.688 201.793C208.796 201.815 191.472 201.85 171.985 201.889C172.093 201.78 171.74 202.133 172.226 201.644V201.647V201.653V201.666V201.692V201.743V201.845V202.049V202.457V203.271C172.226 203.813 172.226 204.353 172.226 204.891C172.225 205.968 172.225 207.037 172.224 208.097C172.223 210.217 172.221 212.302 172.22 214.345L171.983 214.106C185.567 214.149 197.454 214.187 205.979 214.214C210.226 214.244 213.634 214.267 216.014 214.283C217.172 214.296 218.078 214.307 218.727 214.314C219.019 214.32 219.253 214.325 219.437 214.329C219.599 214.337 219.684 214.342 219.689 214.347C219.694 214.352 219.619 214.358 219.468 214.363C219.292 214.367 219.068 214.372 218.788 214.378C218.151 214.385 217.262 214.396 216.125 214.409C213.758 214.426 210.369 214.448 206.146 214.478C197.579 214.505 185.634 214.543 171.983 214.586L171.746 214.587V214.347C171.744 212.305 171.743 210.219 171.742 208.099C171.742 207.038 171.741 205.97 171.741 204.893C171.741 204.356 171.741 203.815 171.741 203.273V202.459V202.051V201.847V201.745V201.694V201.668V201.656V201.65V201.647C172.227 201.157 171.878 201.511 171.987 201.401C191.474 201.44 208.798 201.475 219.69 201.497H219.839L219.838 201.646C219.803 205.658 219.776 208.841 219.756 211.055C219.74 212.109 219.729 212.931 219.72 213.521C219.713 213.778 219.709 213.983 219.704 214.147C219.699 214.284 219.694 214.352 219.689 214.347Z" fill="#F2F2F2"/>
<path d="M226.172 201.641C226.166 201.635 226.16 201.554 226.154 201.4C226.149 201.218 226.143 200.996 226.135 200.726C226.125 200.102 226.11 199.252 226.092 198.179C226.069 195.952 226.037 192.806 225.997 188.939L226.172 189.114C218.747 189.132 208.644 189.156 197.511 189.183C197.292 189.401 197.804 188.885 197.751 188.939V188.942V188.949V188.962V188.988V189.04V189.145V189.353V189.77V190.6C197.751 191.152 197.751 191.701 197.751 192.248C197.75 193.34 197.749 194.418 197.748 195.48C197.745 197.605 197.742 199.665 197.74 201.639L197.509 201.407C205.784 201.451 212.907 201.49 218.013 201.518C220.531 201.545 222.549 201.566 223.986 201.582C224.658 201.594 225.192 201.604 225.597 201.611C225.966 201.622 226.162 201.632 226.172 201.641C226.182 201.651 226.003 201.66 225.651 201.67C225.258 201.677 224.739 201.687 224.088 201.699C222.665 201.715 220.665 201.737 218.169 201.764C213.024 201.791 205.846 201.83 197.508 201.874L197.277 201.875L197.277 201.641C197.274 199.667 197.271 197.607 197.268 195.482C197.267 194.42 197.266 193.341 197.265 192.25C197.265 191.704 197.265 191.155 197.265 190.602V189.772V189.356V189.147V189.042V188.99V188.964V188.951V188.945V188.942C197.211 188.993 197.726 188.477 197.51 188.696C208.644 188.723 218.745 188.747 226.171 188.765L226.348 188.765L226.346 188.941C226.306 192.854 226.275 196.035 226.252 198.289C226.233 199.344 226.219 200.181 226.209 200.796C226.196 201.362 226.184 201.653 226.172 201.641Z" fill="#F2F2F2"/>
<path d="M329.072 52.9058C329.067 52.9006 329.062 52.8233 329.057 52.6748C329.053 52.5046 329.048 52.2908 329.041 52.0231C329.032 51.4253 329.021 50.5921 329.005 49.5233C328.986 47.3303 328.958 44.1773 328.923 40.2031L329.071 40.3516C318.179 40.3733 300.855 40.4086 281.368 40.4476C281.475 40.3388 281.123 40.6913 281.608 40.2031V40.2061V40.2128V40.2256V40.2511V40.3021V40.4041V40.6088V41.0168V41.8313C281.608 42.3736 281.608 42.9136 281.608 43.4513C281.607 44.5283 281.607 45.5971 281.607 46.6568C281.606 48.7771 281.604 50.8621 281.603 52.9051L281.365 52.6658C294.95 52.7093 306.836 52.7476 315.362 52.7746C319.608 52.8038 323.016 52.8271 325.397 52.8428C326.555 52.8563 327.461 52.8668 328.11 52.8743C328.402 52.8803 328.636 52.8856 328.82 52.8893C328.982 52.8953 329.066 52.9006 329.072 52.9058C329.077 52.9111 329.002 52.9163 328.851 52.9216C328.675 52.9253 328.451 52.9306 328.171 52.9366C327.534 52.9441 326.645 52.9546 325.508 52.9681C323.141 52.9838 319.752 53.0071 315.529 53.0363C306.962 53.0633 295.017 53.1016 281.366 53.1451L281.129 53.1458V52.9058C281.127 50.8636 281.126 48.7778 281.125 46.6576C281.125 45.5971 281.124 44.5283 281.124 43.4521C281.124 42.9143 281.124 42.3736 281.124 41.8321V41.0176V40.6096V40.4048V40.3028V40.2518V40.2263V40.2136V40.2068V40.2038C281.61 39.7141 281.261 40.0681 281.37 39.9586C300.857 39.9976 318.181 40.0321 329.073 40.0546H329.222L329.222 40.2031C329.186 44.2156 329.159 47.3978 329.14 49.6118C329.124 50.6663 329.113 51.4883 329.104 52.0786C329.097 52.3351 329.093 52.5406 329.088 52.7041C329.081 52.8428 329.076 52.9103 329.072 52.9058Z" fill="#F2F2F2"/>
<path d="M335.559 40.2079C335.553 40.2019 335.547 40.1201 335.541 39.9664C335.535 39.7841 335.529 39.5629 335.522 39.2929C335.511 38.6681 335.497 37.8184 335.478 36.7459C335.456 34.5184 335.424 31.3729 335.384 27.5051L335.559 27.6806C328.134 27.6986 318.031 27.7226 306.897 27.7496C306.679 27.9679 307.191 27.4519 307.138 27.5059V27.5089V27.5156V27.5291V27.5554V27.6071V27.7121V27.9206V28.3376V29.1679C307.138 29.7199 307.138 30.2689 307.137 30.8156C307.137 31.9069 307.136 32.9861 307.135 34.0481C307.132 36.1729 307.129 38.2331 307.127 40.2071L306.896 39.9746C315.171 40.0189 322.294 40.0579 327.4 40.0856C329.918 40.1126 331.936 40.1344 333.373 40.1501C334.044 40.1621 334.578 40.1719 334.984 40.1794C335.352 40.1891 335.549 40.1981 335.559 40.2079C335.568 40.2176 335.39 40.2266 335.038 40.2364C334.644 40.2439 334.126 40.2536 333.475 40.2656C332.052 40.2814 330.051 40.3031 327.555 40.3301C322.411 40.3579 315.233 40.3961 306.895 40.4404L306.664 40.4419L306.663 40.2079C306.66 38.2339 306.657 36.1736 306.654 34.0489C306.654 32.9861 306.653 31.9076 306.652 30.8164C306.652 30.2704 306.652 29.7214 306.651 29.1686V28.3384V27.9214V27.7129V27.6079V27.5561V27.5299V27.5164V27.5096V27.5066C306.598 27.5584 307.113 27.0424 306.897 27.2606C318.03 27.2876 328.133 27.3116 335.558 27.3296L335.735 27.3304L335.733 27.5059C335.693 31.4186 335.661 34.6001 335.639 36.8531C335.621 37.9084 335.606 38.7454 335.595 39.3604C335.583 39.9289 335.571 40.2199 335.559 40.2079Z" fill="#F2F2F2"/>
<path d="M339.469 274.686C339.464 274.681 339.459 274.604 339.454 274.455C339.45 274.285 339.445 274.071 339.438 273.804C339.429 273.206 339.418 272.373 339.402 271.304C339.383 269.111 339.355 265.958 339.32 261.984L339.468 262.132C328.576 262.154 311.252 262.189 291.765 262.228C291.872 262.119 291.52 262.472 292.005 261.984V261.987V261.993V262.006V262.032V262.083V262.185V262.389V262.797V263.611C292.005 264.153 292.005 264.693 292.005 265.231C292.004 266.308 292.004 267.377 292.004 268.437C292.003 270.557 292.001 272.642 292 274.685L291.762 274.446C305.347 274.489 317.233 274.527 325.759 274.554C330.005 274.584 333.413 274.607 335.794 274.623C336.952 274.636 337.859 274.647 338.507 274.654C338.799 274.66 339.033 274.665 339.217 274.669C339.379 274.677 339.464 274.682 339.469 274.686C339.474 274.692 339.399 274.697 339.248 274.702C339.072 274.706 338.848 274.711 338.568 274.717C337.931 274.725 337.042 274.735 335.906 274.749C333.539 274.765 330.149 274.788 325.926 274.817C317.359 274.844 305.414 274.882 291.764 274.926L291.526 274.926V274.686C291.524 272.644 291.524 270.558 291.522 268.438C291.522 267.378 291.521 266.309 291.521 265.233C291.521 264.695 291.521 264.154 291.521 263.613V262.798V262.39V262.186V262.084V262.033V262.008V261.995V261.988V261.985C292.007 261.495 291.658 261.849 291.767 261.74C311.255 261.779 328.578 261.813 339.47 261.836H339.62L339.619 261.984C339.584 265.997 339.557 269.179 339.537 271.393C339.521 272.448 339.51 273.27 339.501 273.86C339.494 274.116 339.49 274.322 339.485 274.485C339.479 274.623 339.473 274.692 339.469 274.686Z" fill="#F2F2F2"/>
<path d="M345.929 261.982C345.923 261.976 345.917 261.895 345.911 261.741C345.905 261.559 345.899 261.337 345.892 261.067C345.881 260.443 345.867 259.593 345.848 258.521C345.826 256.294 345.794 253.148 345.754 249.28L345.929 249.456C338.504 249.474 328.401 249.498 317.267 249.525C317.049 249.743 317.561 249.227 317.508 249.281V249.284V249.291V249.304V249.33V249.382V249.487V249.695V250.112V250.942C317.508 251.494 317.508 252.043 317.507 252.59C317.507 253.681 317.506 254.761 317.505 255.823C317.502 257.948 317.499 260.008 317.497 261.982L317.266 261.75C325.541 261.794 332.664 261.833 337.77 261.861C340.288 261.888 342.306 261.91 343.743 261.925C344.414 261.937 344.948 261.947 345.354 261.955C345.722 261.963 345.919 261.973 345.929 261.982C345.938 261.992 345.76 262.001 345.408 262.011C345.014 262.018 344.496 262.028 343.845 262.04C342.422 262.056 340.421 262.078 337.925 262.105C332.781 262.132 325.603 262.171 317.265 262.215L317.034 262.216L317.033 261.982C317.03 260.008 317.027 257.948 317.024 255.823C317.024 254.761 317.023 253.682 317.022 252.59C317.022 252.044 317.022 251.495 317.021 250.942V250.112V249.695V249.487V249.382V249.33V249.304V249.291V249.284V249.281C316.968 249.333 317.483 248.817 317.267 249.035C328.4 249.062 338.503 249.086 345.928 249.104L346.105 249.105L346.103 249.28C346.064 253.193 346.032 256.375 346.01 258.628C345.992 259.683 345.977 260.52 345.966 261.135C345.953 261.703 345.941 261.994 345.929 261.982Z" fill="#F2F2F2"/>
<path d="M134.958 42.1924C134.503 40.8866 133.572 39.7781 132.448 38.9741C131.347 38.1866 130.023 37.6676 128.67 37.6759C127.231 37.6849 125.808 38.3119 124.829 39.3656C124.247 39.9926 123.828 40.7651 123.603 41.5909C123.074 41.0224 122.423 40.5671 121.702 40.2776C120.367 39.7429 118.812 39.7849 117.507 40.3909C116.28 40.9616 115.305 41.9966 114.646 43.1794C113.973 44.3869 113.606 45.7871 113.753 47.1611C113.937 48.8824 114.675 50.6464 115.869 51.8989C117.132 53.2211 118.894 54.1226 120.628 54.7001C123.544 55.6714 127.362 56.8496 127.362 56.8496C127.362 56.8496 129.741 54.0701 131.963 51.9454C133.284 50.6824 134.492 49.1141 135.068 47.3794C135.614 45.7369 135.526 43.8274 134.958 42.1924Z" fill="#F2F2F2"/>
<path d="M348.867 101.305C349.22 99.9682 349.067 98.529 348.584 97.2337C348.111 95.9655 347.304 94.7955 346.176 94.0462C344.978 93.2505 343.447 92.9737 342.046 93.3015C341.213 93.4965 340.434 93.903 339.787 94.4625C339.666 93.6952 339.38 92.9535 338.944 92.3107C338.135 91.1212 336.822 90.2872 335.401 90.0607C334.064 89.8477 332.677 90.162 331.471 90.774C330.238 91.3995 329.15 92.355 328.505 93.5767C327.697 95.1075 327.322 96.9817 327.613 98.688C327.921 100.49 328.878 102.222 329.994 103.67C331.87 106.105 334.377 109.216 334.377 109.216C334.377 109.216 337.903 108.24 340.933 107.719C342.734 107.41 344.612 106.785 346.059 105.668C347.431 104.611 348.424 102.978 348.867 101.305Z" fill="#F2F2F2"/>
<path d="M45.0322 218.459C44.5305 217.171 43.5592 216.097 42.4065 215.335C41.277 214.589 39.936 214.118 38.583 214.177C37.146 214.239 35.7457 214.917 34.8067 216.007C34.248 216.655 33.8572 217.442 33.6645 218.276C33.1147 217.727 32.4472 217.295 31.716 217.034C30.3622 216.548 28.8097 216.647 27.5287 217.301C26.3227 217.917 25.3867 218.987 24.7717 220.193C24.144 221.424 23.8275 222.837 24.0255 224.204C24.2737 225.917 25.074 227.654 26.3145 228.86C27.6247 230.135 29.4187 230.972 31.173 231.485C34.1227 232.348 37.9807 233.385 37.9807 233.385C37.9807 233.385 40.2562 230.52 42.3982 228.315C43.6725 227.004 44.8215 225.393 45.3337 223.638C45.819 221.977 45.6607 220.072 45.0322 218.459Z" fill="#F2F2F2"/>
<path d="M344.461 312.154C344.461 312.262 274.181 312.349 187.507 312.349C100.803 312.349 30.5391 312.261 30.5391 312.154C30.5391 312.047 100.804 311.959 187.507 311.959C274.181 311.959 344.461 312.046 344.461 312.154Z" fill="#263238"/>
<path d="M100.085 172.427H85.0088V76.4888H100.085V117.605H117.217V76.4888H132.567V172.427H117.217V131.31H100.085V172.427Z" fill="#F2F2F2"/>
<path d="M228.158 190.512V264.521C228.158 271.374 231.173 273.842 235.97 273.842C240.767 273.842 243.782 271.374 243.782 264.521V190.512H258.035V263.561C258.035 278.912 250.361 287.683 235.559 287.683C220.757 287.683 213.081 278.912 213.081 263.561V190.512H228.158Z" fill="black"/>
<path d="M196.104 169.111H180.891L178.287 151.705H159.785L157.181 169.111H143.339L158.689 73.1724H180.755L196.104 169.111ZM161.704 138.685H176.232L168.968 90.1681L161.704 138.685Z" fill="#F2F2F2"/>
<path d="M216.349 99.5548V169.042H202.78V73.103H221.694L237.181 130.529V73.103H250.612V169.041H235.125L216.349 99.5548Z" fill="#F2F2F2"/>
<path d="M290.325 124.922L287.242 133.935L291.71 161.841L277.433 164.127L262.886 73.2715L277.163 70.9855L283.501 110.573L295.853 67.993L310.131 65.707L296.756 109.382L324.677 156.562L310.011 158.91L290.325 124.922Z" fill="#F2F2F2"/>
<path d="M160.323 213.537C160.323 198.187 168.41 189.416 183.211 189.416C198.013 189.416 206.099 198.187 206.099 213.537V263.426C206.099 278.776 198.014 287.547 183.211 287.547C168.41 287.547 160.323 278.776 160.323 263.426V213.537ZM175.399 264.385C175.399 271.238 178.415 273.842 183.211 273.842C188.008 273.842 191.023 271.237 191.023 264.385V212.579C191.023 205.725 188.008 203.122 183.211 203.122C178.415 203.122 175.399 205.726 175.399 212.579V264.385Z" fill="black"/>
<path d="M125.313 256.866L106.263 192.725H122.024L133.536 236.445L145.049 192.725H159.44L140.389 256.866V288.663H125.313V256.866Z" fill="black"/>
<path d="M264.734 174.787L260.006 148.434C258.616 141.916 261.251 135.675 267.804 134.466L268.416 134.39C274.577 133.622 280.296 137.711 281.556 143.79C282.729 149.445 283.953 155.709 284.298 158.779C285.01 165.134 278.787 166.912 278.787 166.912C278.773 166.914 279.388 170.753 279.7 172.603L281.902 176.68L276.506 176.283L264.734 174.787Z" fill="#FFBF9D"/>
<path d="M278.788 166.912C278.788 166.912 274.818 167.645 270.222 165.5C270.222 165.5 272.804 170.022 279.064 168.662L278.788 166.912Z" fill="#FF9A6C"/>
<path d="M279.18 149.962C279.257 150.438 278.917 150.895 278.421 150.985C277.926 151.073 277.461 150.76 277.385 150.284C277.308 149.808 277.648 149.35 278.143 149.26C278.639 149.171 279.104 149.485 279.18 149.962Z" fill="#263238"/>
<path d="M280.555 146.759C280.457 146.891 279.707 146.469 278.732 146.593C277.756 146.703 277.104 147.294 276.983 147.188C276.924 147.142 277.012 146.914 277.296 146.648C277.574 146.384 278.07 146.099 278.678 146.026C279.285 145.954 279.825 146.114 280.147 146.306C280.475 146.498 280.603 146.699 280.555 146.759Z" fill="#263238"/>
<path d="M270.274 151.058C270.35 151.534 270.01 151.991 269.514 152.081C269.019 152.17 268.555 151.857 268.479 151.38C268.402 150.904 268.743 150.446 269.238 150.356C269.733 150.267 270.197 150.581 270.274 151.058Z" fill="#263238"/>
<path d="M271.025 148.177C270.928 148.309 270.177 147.887 269.203 148.011C268.228 148.122 267.575 148.713 267.454 148.606C267.395 148.56 267.482 148.332 267.767 148.067C268.045 147.803 268.541 147.518 269.148 147.444C269.756 147.372 270.295 147.532 270.617 147.724C270.945 147.916 271.074 148.117 271.025 148.177Z" fill="#263238"/>
<path d="M275.462 155.233C275.451 155.179 276.043 154.998 277.01 154.75C277.256 154.693 277.485 154.615 277.506 154.44C277.542 154.253 277.404 153.997 277.248 153.723C276.939 153.15 276.615 152.548 276.275 151.918C274.916 149.347 273.899 147.219 274.002 147.166C274.107 147.112 275.293 149.153 276.652 151.725C276.981 152.36 277.296 152.965 277.596 153.544C277.725 153.816 277.927 154.117 277.847 154.505C277.803 154.699 277.637 154.858 277.483 154.921C277.329 154.989 277.19 155.009 277.068 155.032C276.085 155.208 275.472 155.289 275.462 155.233Z" fill="#263238"/>
<path d="M270.963 145.088C270.861 145.354 269.883 145.21 268.728 145.329C267.57 145.424 266.634 145.746 266.486 145.504C266.42 145.387 266.586 145.139 266.967 144.887C267.343 144.635 267.942 144.4 268.635 144.335C269.328 144.271 269.96 144.392 270.377 144.571C270.797 144.748 271.007 144.962 270.963 145.088Z" fill="#263238"/>
<path d="M280.246 143.887C280.075 144.136 279.25 144.018 278.296 144.141C277.339 144.235 276.558 144.535 276.34 144.33C276.243 144.229 276.339 143.99 276.662 143.731C276.98 143.474 277.537 143.223 278.195 143.148C278.852 143.073 279.448 143.195 279.811 143.375C280.178 143.554 280.321 143.766 280.246 143.887Z" fill="#263238"/>
<path d="M261.112 153.067C260.998 153.034 256.592 152.322 257.271 156.642C257.951 160.962 262.149 159.389 262.137 159.264C262.125 159.139 261.112 153.067 261.112 153.067Z" fill="#FFBF9D"/>
<path d="M260.556 157.834C260.535 157.824 260.489 157.899 260.371 157.977C260.256 158.053 260.048 158.126 259.809 158.077C259.326 157.981 258.828 157.317 258.684 156.541C258.612 156.15 258.635 155.763 258.726 155.431C258.808 155.094 258.978 154.841 259.201 154.764C259.422 154.675 259.606 154.787 259.678 154.9C259.755 155.012 259.741 155.103 259.765 155.107C259.779 155.116 259.846 155.02 259.783 154.847C259.752 154.764 259.685 154.67 259.571 154.603C259.454 154.535 259.295 154.516 259.138 154.558C258.808 154.634 258.556 154.987 258.457 155.352C258.339 155.721 258.304 156.157 258.385 156.598C258.55 157.464 259.123 158.209 259.776 158.29C260.093 158.322 260.332 158.191 260.447 158.068C260.564 157.94 260.571 157.84 260.556 157.834Z" fill="#FF9A6C"/>
<path d="M272.52 156.341C272.667 156.307 272.838 157.297 273.806 157.854C274.773 158.413 275.808 158.122 275.84 158.259C275.865 158.319 275.638 158.491 275.194 158.58C274.76 158.67 274.098 158.639 273.506 158.298C272.915 157.956 272.595 157.419 272.491 157.018C272.383 156.611 272.451 156.346 272.52 156.341Z" fill="#263238"/>
<path d="M289.316 136.661C289.208 136.417 288.989 136.236 288.742 136.137C288.201 135.922 287.637 136.049 287.084 136.126C285.71 136.317 284.294 136.177 282.976 135.746C283.369 135.464 283.726 135.14 284.012 134.75C284.603 133.944 284.839 132.815 284.374 131.931C284.287 131.765 284.156 131.597 283.97 131.57C283.676 131.528 283.473 131.842 283.311 132.091C282.779 132.91 282.233 133.311 281.257 133.363C280.651 133.395 280.053 133.351 279.539 133.132C279.517 133.115 279.497 133.097 279.475 133.08C279.214 132.883 278.96 132.695 278.711 132.515C278.711 132.514 278.71 132.513 278.71 132.513L278.711 132.515C276.835 131.154 275.263 130.253 273.733 129.898C271.491 129.376 267.908 129.579 265.798 130.498C263.687 131.417 261.989 133.508 262.032 135.81C260.636 134.958 258.785 135.255 257.376 136.092L257.336 136.082C255.755 136.938 255.078 138.854 254.849 140.637C254.837 140.735 254.828 140.833 254.817 140.93C254.39 141.915 253.741 142.803 252.906 143.48C252.759 143.599 252.592 143.743 252.601 143.933C252.61 144.12 252.789 144.249 252.957 144.333C253.403 144.558 253.9 144.674 254.399 144.686C254.309 145.115 254.19 145.537 254.027 145.948C253.887 146.297 253.722 146.715 253.939 147.023C254.106 147.26 254.45 147.316 254.728 147.23C255.005 147.143 255.233 146.948 255.452 146.756C255.335 147.232 255.218 147.708 255.101 148.184C255.722 148.196 256.342 148.05 256.902 147.781C257.505 149.322 258.231 152.236 258.81 153.254C259.961 153.095 260.22 152.927 260.828 153.03C261.615 153.162 261.536 154.532 262.451 154.004C262.916 153.735 263.386 151.738 263.474 151.207C264.054 147.685 263.863 144.038 262.921 140.594C263.499 139.748 264.242 139.014 265.096 138.446L265.031 138.525C266.703 137.637 268.609 136.723 270.414 137.292C271.814 137.734 272.789 138.965 273.928 139.891C276.088 141.646 278.343 142.412 281.108 142.103C281.652 143.973 282.21 147.082 282.58 148.848L283.547 145.049L283.551 145.063C283.642 144.835 283.71 144.608 283.775 144.383L283.799 144.314L283.798 144.305C283.901 143.942 283.997 143.58 284.141 143.215C284.148 143.219 284.154 143.223 284.161 143.228C285.257 143.929 286.478 142.407 285.555 141.488C285.372 141.305 285.164 141.15 284.933 141.031C285.438 141.377 286.127 141.473 286.677 141.205C287.228 140.937 287.585 140.283 287.441 139.688C287.343 139.282 286.992 138.959 286.595 138.854C287.384 138.794 288.155 138.5 288.773 138.007C289.182 137.684 289.554 137.198 289.316 136.661Z" fill="#263238"/>
<path d="M264.137 136.227C264.152 136.241 263.898 136.435 263.593 136.905C263.29 137.373 262.991 138.153 262.948 139.156C262.923 139.656 262.945 140.206 263.035 140.789C263.123 141.372 263.267 141.988 263.413 142.638C263.558 143.289 263.713 143.976 263.783 144.705C263.818 145.069 263.831 145.443 263.81 145.822C263.786 146.195 263.752 146.601 263.529 146.952C263.351 147.239 263.006 147.407 262.683 147.391C262.358 147.384 262.051 147.26 261.809 147.062C261.328 146.65 261.133 146.064 260.95 145.548L261.085 145.544C260.941 146.055 260.792 146.561 260.521 146.988C260.255 147.417 259.844 147.738 259.394 147.849C259.17 147.906 258.935 147.904 258.724 147.837C258.51 147.771 258.34 147.627 258.214 147.469C258.091 147.306 258.012 147.119 257.992 146.929C257.974 146.739 258.019 146.55 258.119 146.406L258.196 146.455C257.794 147.087 257.326 147.465 256.995 147.685C256.828 147.796 256.692 147.867 256.599 147.914C256.505 147.958 256.456 147.978 256.454 147.975C256.452 147.97 256.498 147.943 256.588 147.891C256.676 147.838 256.807 147.76 256.967 147.645C257.285 147.414 257.737 147.03 258.118 146.406L258.195 146.456C258.017 146.715 258.067 147.112 258.298 147.402C258.415 147.545 258.571 147.672 258.759 147.726C258.946 147.785 259.16 147.784 259.365 147.731C259.778 147.624 260.161 147.324 260.408 146.917C260.663 146.509 260.808 146.016 260.948 145.506L261.007 145.289L261.084 145.501C261.267 146.016 261.465 146.577 261.903 146.948C262.119 147.125 262.4 147.237 262.684 147.242C262.97 147.252 263.248 147.116 263.404 146.87C263.6 146.565 263.639 146.179 263.662 145.813C263.683 145.443 263.671 145.077 263.637 144.72C263.57 144.003 263.419 143.319 263.278 142.669C263.136 142.018 262.996 141.399 262.912 140.807C262.826 140.217 262.81 139.657 262.842 139.15C262.899 138.132 263.221 137.34 263.544 136.874C263.871 136.404 264.137 136.227 264.137 136.227Z" fill="#F2F2F2"/>
<path d="M284.662 139.345C284.663 139.346 284.649 139.364 284.618 139.396C284.58 139.433 284.534 139.479 284.477 139.535C284.417 139.598 284.338 139.672 284.236 139.749C284.136 139.829 284.024 139.924 283.883 140.012C283.339 140.382 282.44 140.806 281.251 140.919C280.074 141.035 278.609 140.838 277.214 140.102C275.81 139.389 274.493 138.223 273.348 136.83C272.769 136.136 272.273 135.409 271.747 134.747C271.223 134.086 270.666 133.485 270.035 133.041C269.409 132.593 268.718 132.298 268.04 132.218C267.701 132.171 267.372 132.2 267.062 132.256C266.753 132.321 266.467 132.43 266.209 132.562C265.692 132.83 265.299 133.199 265.013 133.561C264.727 133.925 264.554 134.291 264.443 134.597C264.246 135.224 264.288 135.599 264.264 135.596C264.261 135.596 264.26 135.574 264.259 135.53C264.259 135.476 264.259 135.411 264.259 135.332C264.263 135.158 264.299 134.9 264.388 134.58C264.491 134.264 264.66 133.888 264.947 133.51C265.233 133.135 265.631 132.75 266.16 132.469C266.425 132.33 266.719 132.215 267.039 132.144C267.359 132.083 267.705 132.05 268.055 132.095C268.758 132.173 269.473 132.474 270.115 132.929C270.764 133.381 271.334 133.991 271.862 134.657C272.394 135.323 272.891 136.048 273.465 136.736C274.601 138.117 275.9 139.271 277.279 139.979C278.649 140.711 280.081 140.913 281.243 140.814C282.413 140.716 283.304 140.315 283.852 139.964C284.402 139.607 284.648 139.328 284.662 139.345Z" fill="#F2F2F2"/>
<path d="M284.804 136.474C284.811 136.483 284.739 136.551 284.602 136.668C284.467 136.788 284.256 136.942 283.983 137.113C283.712 137.287 283.368 137.464 282.974 137.628C282.577 137.785 282.126 137.926 281.642 138.019C281.156 138.108 280.685 138.141 280.258 138.139C279.831 138.129 279.447 138.09 279.131 138.026C278.814 137.965 278.561 137.899 278.393 137.836C278.222 137.776 278.131 137.739 278.134 137.729C278.142 137.702 278.519 137.828 279.148 137.921C279.462 137.971 279.839 137.998 280.259 138C280.677 137.994 281.138 137.958 281.614 137.871C282.089 137.779 282.53 137.645 282.923 137.498C283.312 137.344 283.654 137.181 283.928 137.021C284.481 136.707 284.787 136.453 284.804 136.474Z" fill="#F2F2F2"/>
<path d="M273.281 238.663L276.356 274.988L275.314 281.303C275.314 281.303 262.72 317.481 262.987 332.46L277.721 331.757C277.721 331.757 292.102 290.795 293.228 286.266C294.355 281.738 300.159 251.477 300.159 251.477L309.715 275.411L309.982 280.992L304.477 315.713L321.593 316.604C321.593 316.604 328.596 277.196 327.904 272.082C327.213 266.969 315.909 227.008 315.909 227.008L310.072 221.916L276.777 227.532L273.281 238.663Z" fill="#263238"/>
<path d="M320.025 306.009L319.5 320.573C319.5 320.573 333.358 326.044 333.51 328.746L306.699 328.654L306.636 305.925L320.025 306.009Z" fill="#263238"/>
<path d="M311.169 319.331C310.65 319.478 310.29 320.093 310.41 320.646C310.529 321.2 311.118 321.592 311.64 321.453C312.161 321.315 312.615 320.592 312.437 320.056C312.26 319.52 311.544 319.1 311.069 319.366" fill="#F2F2F2"/>
<path d="M306.673 328.664L306.752 326.373L332.427 327.318C332.427 327.318 333.62 327.87 333.483 328.756L306.673 328.664Z" fill="#F2F2F2"/>
<path d="M319.935 320.441C319.931 320.579 319.276 320.64 318.631 321.082C317.975 321.505 317.642 322.102 317.521 322.048C317.4 322.021 317.597 321.196 318.387 320.675C319.172 320.147 319.964 320.314 319.935 320.441Z" fill="#F2F2F2"/>
<path d="M322.715 321.666C322.744 321.8 322.177 322.033 321.731 322.616C321.269 323.184 321.156 323.816 321.025 323.809C320.902 323.831 320.813 323.022 321.381 322.308C321.942 321.59 322.712 321.534 322.715 321.666Z" fill="#F2F2F2"/>
<path d="M324.348 325.229C324.229 325.257 324.048 324.567 324.386 323.812C324.719 323.055 325.336 322.758 325.392 322.873C325.465 322.987 325.068 323.391 324.799 324.015C324.517 324.633 324.478 325.216 324.348 325.229Z" fill="#F2F2F2"/>
<path d="M319.69 317.104C319.635 317.23 319.035 317.037 318.294 317.087C317.553 317.122 316.977 317.382 316.909 317.263C316.833 317.163 317.397 316.654 318.27 316.607C319.141 316.554 319.755 316.996 319.69 317.104Z" fill="#F2F2F2"/>
<path d="M276.304 321.346L276.407 338.071L280.302 351.277C280.583 352.228 279.999 353.219 279.03 353.434C278.488 353.555 277.925 353.409 277.513 353.036C274.89 350.663 265.287 341.887 265.348 340.663C265.418 339.244 264.068 323.028 264.068 323.028L276.304 321.346Z" fill="#263238"/>
<path d="M279.013 353.433L265.299 339.532L265.319 340.241C265.337 340.853 265.569 341.44 265.979 341.895C267.077 343.111 270.182 346.404 277.445 353.037C277.868 353.422 278.458 353.571 279.013 353.433Z" fill="#F2F2F2"/>
<g opacity="0.6">
<path d="M268.599 334.036C269.027 334.314 269.182 334.944 268.923 335.382C268.662 335.821 268.023 335.983 267.591 335.713C267.159 335.444 266.95 334.693 267.257 334.287C267.564 333.88 268.325 333.73 268.68 334.096" fill="#F2F2F2"/>
</g>
<path d="M274.998 346.243C275.094 346.287 275.446 345.4 276.427 344.901C277.392 344.372 278.323 344.58 278.341 344.477C278.354 344.436 278.139 344.312 277.746 344.268C277.357 344.222 276.793 344.293 276.255 344.576C275.719 344.861 275.342 345.286 275.161 345.634C274.976 345.983 274.956 346.231 274.998 346.243Z" fill="#F2F2F2"/>
<path d="M276.256 348.441C276.338 348.51 276.858 347.952 277.716 347.679C278.567 347.387 279.319 347.526 279.343 347.421C279.389 347.334 278.573 347.003 277.601 347.33C276.625 347.646 276.167 348.398 276.256 348.441Z" fill="#F2F2F2"/>
<path d="M272.668 343.431C272.749 343.508 273.546 342.644 274.842 342.104C276.13 341.542 277.305 341.565 277.305 341.453C277.33 341.363 276.081 341.168 274.698 341.765C273.31 342.349 272.586 343.386 272.668 343.431Z" fill="#F2F2F2"/>
<path d="M272.233 338.349C272.281 338.448 273.193 338.035 274.394 337.957C275.594 337.862 276.555 338.14 276.588 338.035C276.632 337.951 275.657 337.492 274.367 337.59C273.077 337.678 272.177 338.273 272.233 338.349Z" fill="#F2F2F2"/>
<path d="M272.087 333.447C272.142 333.542 273.054 332.958 274.325 332.979C275.597 332.972 276.503 333.566 276.558 333.472C276.584 333.437 276.396 333.232 276.004 333.02C275.615 332.808 275.012 332.618 274.327 332.612C273.642 332.61 273.037 332.794 272.646 333.002C272.252 333.209 272.061 333.411 272.087 333.447Z" fill="#F2F2F2"/>
<path d="M256.912 175.595C256.912 175.595 247.947 181.012 254.42 193.926C262.357 209.759 269.916 232.025 272.508 233.498C273.568 234.099 278.545 231.6 278.545 231.6L282.5 224.285L272.022 196.906L265.18 181.076L256.912 175.595Z" fill="#263238"/>
<path d="M263.449 171.4L256.912 175.594L274.262 206.192L271.752 233.533L275.672 235.752L316.163 230.14L317.474 228.31L313.03 215.467L307.107 201.05C307.107 201.05 301.251 187.95 297.793 182.368C294.334 176.787 290.622 171.142 290.622 171.142L280.696 170.458L279.481 169.108C279.481 169.108 277.984 171.821 273.912 172.072C270.599 172.276 263.565 170.476 263.565 170.476L263.449 171.4Z" fill="#263238"/>
<path d="M344.277 216.66C344.277 216.66 320.524 197.637 318.586 195.414C316.647 193.192 300.137 175.808 300.137 175.808C300.137 175.808 294.094 170.013 290.625 171.141C286.373 172.523 294.841 192.978 294.841 192.978C294.841 192.978 312.314 207.48 315.146 210.237C317.978 212.996 334.993 223.951 334.993 223.951L339.028 223.391L344.277 216.66Z" fill="#263238"/>
<path d="M267.227 187.826C267.239 187.822 267.3 187.946 267.406 188.188C267.524 188.468 267.672 188.819 267.853 189.25C268.23 190.175 268.788 191.511 269.49 193.155C270.885 196.447 272.91 200.952 275.138 205.935C277.367 210.92 279.301 215.473 280.58 218.817C281.221 220.488 281.719 221.849 282.033 222.799C282.179 223.243 282.298 223.605 282.393 223.894C282.471 224.146 282.506 224.279 282.495 224.284C282.483 224.288 282.424 224.162 282.323 223.919C282.211 223.636 282.071 223.282 281.899 222.848C281.544 221.913 281.01 220.568 280.338 218.912C279 215.598 277.03 211.068 274.802 206.084C272.575 201.103 270.585 196.576 269.25 193.255C268.578 191.596 268.056 190.244 267.72 189.302C267.564 188.861 267.438 188.501 267.337 188.214C267.253 187.964 267.215 187.831 267.227 187.826Z" fill="#263238"/>
<path d="M296.301 180.09C296.31 180.08 296.384 180.149 296.519 180.293C296.666 180.43 296.825 180.669 297.039 180.972C297.459 181.584 298.005 182.504 298.643 183.66C299.919 185.971 301.571 189.222 303.318 192.847C305.069 196.474 306.594 199.783 307.669 202.192C308.205 203.397 308.633 204.374 308.917 205.055C309.202 205.735 309.349 206.116 309.326 206.127C309.303 206.137 309.112 205.776 308.787 205.114C308.439 204.392 307.983 203.444 307.433 202.3C306.268 199.867 304.71 196.609 302.987 193.007C301.241 189.384 299.628 186.12 298.413 183.782C297.807 182.614 297.297 181.678 296.919 181.048C296.553 180.409 296.277 180.118 296.301 180.09Z" fill="#263238"/>
<path d="M352.866 191.691C352.328 186.198 349.754 181.021 346.145 176.846C342.609 172.756 337.959 169.5 332.696 168.264C327.105 166.951 320.989 168.047 316.203 171.221C313.356 173.109 311.003 175.716 309.361 178.709C307.84 176.005 305.739 173.628 303.211 171.829C298.53 168.501 292.454 167.205 286.824 168.336C281.522 169.401 276.768 172.503 273.102 176.476C269.359 180.531 266.617 185.622 265.9 191.094C265.002 197.949 266.208 205.487 269.673 211.468C273.332 217.785 279.327 222.936 285.516 226.805C295.926 233.309 309.638 241.464 309.638 241.464C309.638 241.464 321.48 232.905 332.097 226.744C338.41 223.079 344.569 218.127 348.432 211.933C352.089 206.067 353.54 198.571 352.866 191.691Z" fill="#F2F2F2"/>
<path d="M302.805 236.687L298.412 234.015C298.412 234.015 293.926 231.057 293.652 230.601C293.377 230.145 293.099 228.944 293.091 228.291C293.084 227.638 295.115 226.184 295.338 224.924C295.56 223.664 294.228 222.453 293.748 222.243C293.268 222.033 292.775 222.773 292.67 223.323C292.565 223.874 291.757 224.679 290.493 224.964C289.23 225.249 287.487 226.89 287.487 226.89L283.689 234.042C284.338 235.266 292.128 238.178 292.365 238.32C292.602 238.463 300.907 238.617 301.738 238.309C302.568 238.002 302.851 237.683 302.805 236.687Z" fill="#FFBF9D"/>
<path d="M347.905 218.08C347.875 219.274 345.499 219.047 345.499 219.047C345.742 219.655 344.421 220.984 343.603 220.621C343.795 221.055 344.011 221.21 343.944 221.68C343.876 222.148 343.607 222.603 343.184 222.817C342.761 223.03 342.188 222.954 341.89 222.586C342.021 223.304 341.653 224.086 341.016 224.443C340.633 224.658 340.169 224.71 339.743 224.611C339.529 224.561 339.328 224.473 339.145 224.352C339.079 224.308 338.995 224.265 338.948 224.2C338.925 224.167 338.914 224.132 338.905 224.094C338.862 223.921 338.849 223.745 338.794 223.574C338.774 223.51 338.75 223.446 338.725 223.383C338.609 223.097 338.446 222.832 338.256 222.59C338.169 222.479 338.049 222.377 337.979 222.254C337.932 222.171 337.928 222.073 337.897 221.983C337.696 221.417 337.216 220.966 336.809 220.543C336.35 220.067 335.887 219.542 335.764 218.893C335.642 218.243 336.013 217.456 336.669 217.372C336.331 217.121 336.285 216.589 336.516 216.238C336.747 215.886 337.19 215.713 337.611 215.73C338.031 215.746 338.429 215.929 338.78 216.161C338.428 215.815 338.505 215.174 338.866 214.838C339.228 214.502 339.784 214.441 340.26 214.577C340.735 214.714 341.143 215.018 341.514 215.344C341.885 215.669 343.444 217.012 343.859 217.28L344.938 216.383L345.076 216.269C345.915 216.607 346.181 216.667 346.901 217.012C347.439 217.272 347.918 217.583 347.905 218.08Z" fill="#FFBF9D"/>
<path d="M338.129 225.786C337.836 226.071 337.451 226.305 337.045 226.263C336.564 226.212 335.555 225.222 335.26 224.84C335.249 224.829 336.802 223.734 336.802 223.734C336.871 223.422 336.452 223.211 336.326 222.916C336.11 222.406 336.437 221.766 336.951 221.561C337.466 221.355 338.084 221.541 338.475 221.934C338.866 222.327 339.048 222.891 339.068 223.446C339.1 224.31 338.75 225.183 338.129 225.786Z" fill="#FFBF9D"/>
<path d="M342.004 222.701C342.079 222.626 340.945 221.372 339.472 219.901C337.998 218.429 336.744 217.298 336.669 217.373C336.594 217.448 337.728 218.701 339.201 220.172C340.674 221.644 341.929 222.776 342.004 222.701Z" fill="#F2F2F2"/>
<path d="M343.695 220.695C343.773 220.63 342.844 219.396 341.452 218.104C340.064 216.807 338.767 215.967 338.709 216.051C338.643 216.139 339.822 217.105 341.191 218.385C342.564 219.66 343.611 220.767 343.695 220.695Z" fill="#F2F2F2"/>
<path d="M345.337 218.735C345.417 218.663 344.592 217.684 343.405 216.667C342.22 215.651 341.215 214.895 341.147 214.969C341.072 215.051 341.975 215.945 343.153 216.956C344.331 217.965 345.261 218.807 345.337 218.735Z" fill="#F2F2F2"/>
<path d="M338.566 225.043C338.595 225.079 338.839 224.94 339.009 224.546C339.184 224.163 339.208 223.532 338.965 222.948C338.715 222.363 338.419 221.934 338.113 221.622C337.765 221.306 337.422 221.433 337.457 221.483C337.463 221.535 337.708 221.532 337.918 221.81C338.11 222.091 338.397 222.581 338.608 223.088C338.821 223.608 338.836 224.11 338.752 224.46C338.672 224.812 338.524 225.003 338.566 225.043Z" fill="#F2F2F2"/>
<path d="M66.2441 155.711C66.6281 155.62 76.8574 160.711 76.2184 160.723C75.5786 160.735 67.1456 167.64 67.1456 167.64L66.2441 155.711Z" fill="black"/>
<path d="M68.0706 310.484L69.2586 322.861C69.2586 322.861 55.7683 327.901 55.6221 330.394L81.1266 330.463L81.1123 328.598L80.0428 322.231L78.4663 309.863L68.0706 310.484Z" fill="#F2F2F2"/>
<path d="M76.9151 320.951C77.4206 321.088 77.7708 321.655 77.6553 322.166C77.5391 322.677 76.9653 323.038 76.4576 322.91C75.9498 322.783 75.5081 322.114 75.6806 321.62C75.8531 321.126 76.5498 320.738 77.0118 320.984" fill="#F2F2F2"/>
<path d="M81.1255 330.46L81.1113 328.595L56.6485 329.064C56.6485 329.064 55.4875 329.573 55.621 330.391L81.1255 330.46Z" fill="#263238"/>
<path d="M68.8757 322.729C68.8802 322.857 69.5177 322.913 70.1455 323.321C70.7845 323.713 71.1092 324.265 71.2262 324.214C71.344 324.189 71.152 323.427 70.3825 322.946C69.6182 322.459 68.848 322.612 68.8757 322.729Z" fill="#263238"/>
<path d="M66.0988 323.874C66.0695 323.997 66.6223 324.213 67.0565 324.75C67.5065 325.275 67.6175 325.858 67.7443 325.852C67.8643 325.872 67.9505 325.125 67.3978 324.467C66.851 323.804 66.101 323.752 66.0988 323.874Z" fill="#263238"/>
<path d="M64.5922 327.159C64.7077 327.186 64.8839 326.549 64.5547 325.852C64.2299 325.152 63.6284 324.879 63.5752 324.985C63.5032 325.09 63.8917 325.464 64.1527 326.04C64.4279 326.61 64.4662 327.147 64.5922 327.159Z" fill="#263238"/>
<path d="M67.9303 319.748C67.9843 319.865 68.5686 319.687 69.2886 319.734C70.0101 319.766 70.5711 320.007 70.6371 319.898C70.7106 319.805 70.1623 319.335 69.3126 319.291C68.4643 319.241 67.8673 319.649 67.9303 319.748Z" fill="#263238"/>
<path d="M99.413 310.835L100.506 323.001C100.506 323.001 87.2225 327.87 87.0635 330.319L112.119 330.541L112.116 328.709L111.103 322.447L109.629 310.288L99.413 310.835Z" fill="#F2F2F2"/>
<path d="M108.098 321.155C108.594 321.293 108.935 321.852 108.818 322.353C108.701 322.854 108.136 323.206 107.638 323.077C107.14 322.949 106.71 322.289 106.883 321.805C107.055 321.32 107.742 320.944 108.194 321.189" fill="#F2F2F2"/>
<path d="M112.117 330.551L112.114 328.718L88.0785 329.032C88.0785 329.032 86.9355 329.525 87.0615 330.329L112.117 330.551Z" fill="#263238"/>
<path d="M100.133 322.864C100.136 322.989 100.762 323.049 101.376 323.453C102.002 323.841 102.317 324.385 102.433 324.336C102.548 324.312 102.365 323.562 101.612 323.085C100.863 322.602 100.106 322.749 100.133 322.864Z" fill="#263238"/>
<path d="M97.4347 323.982C97.4055 324.103 97.947 324.318 98.3707 324.849C98.8095 325.368 98.9152 325.941 99.0397 325.936C99.1575 325.956 99.2467 325.222 98.7075 324.572C98.1742 323.917 97.4377 323.863 97.4347 323.982Z" fill="#263238"/>
<path d="M95.8995 327.187C96.0135 327.214 96.1898 326.589 95.871 325.902C95.5568 325.213 94.9673 324.94 94.914 325.044C94.8428 325.147 95.2215 325.516 95.475 326.084C95.7413 326.646 95.775 327.174 95.8995 327.187Z" fill="#263238"/>
<path d="M99.2367 319.935C99.2885 320.049 99.8637 319.879 100.572 319.929C101.28 319.965 101.83 320.205 101.895 320.098C101.968 320.008 101.432 319.542 100.598 319.494C99.7647 319.44 99.176 319.837 99.2367 319.935Z" fill="#263238"/>
<path d="M67.5339 202.852C67.5339 202.852 61.4889 220.36 61.2804 233.385C61.0719 246.409 60.8634 267.12 63.5732 289.966C66.2829 312.812 67.5339 321.993 67.5339 321.993H81.2919C81.2919 321.993 82.7514 307.688 82.5429 294.877C82.3344 282.066 81.3332 278.01 82.5632 263.918C83.7932 249.826 85.7402 241.362 87.7899 237.091C87.7899 237.091 93.4689 230.341 93.8859 221.08C94.3029 211.82 91.0254 203.862 91.0254 203.862L67.5339 202.852Z" fill="#263238"/>
<path d="M79.7705 227.413C79.9993 228.117 84.0823 256.821 87.0605 269.481C90.0388 282.142 93.3523 285.493 93.9335 295.792C94.6018 307.638 97.8545 321.991 97.8545 321.991H112.504C112.504 321.991 110.444 300.096 108.384 282.98C106.324 265.864 103.348 244.763 103.806 238.433C104.263 232.103 105.408 224.285 103.806 215.415C102.203 206.546 98.7395 204.208 98.7395 204.208L86.3105 203.646L79.7705 227.413Z" fill="#263238"/>
<path d="M93.5478 210.997C93.5575 210.992 93.6348 211.145 93.775 211.443C93.934 211.733 94.0825 212.194 94.2723 212.79C94.6113 213.994 94.8355 215.807 94.7553 218.037C94.684 220.266 94.3128 222.912 93.5508 225.761C93.163 227.183 92.6575 228.657 91.9518 230.106C91.249 231.56 90.2748 232.927 89.305 234.306C87.3138 237.05 86.3305 240.174 85.5858 242.995C84.8613 245.835 84.4728 248.454 84.1953 250.654C83.9245 252.858 83.7625 254.648 83.641 255.885C83.581 256.481 83.533 256.956 83.4978 257.308C83.4618 257.634 83.4385 257.804 83.428 257.803C83.4175 257.802 83.4205 257.631 83.4363 257.304C83.4573 256.95 83.4858 256.473 83.5218 255.875C83.6065 254.634 83.7363 252.84 83.9793 250.629C84.2305 248.419 84.5973 245.787 85.3113 242.925C85.669 241.496 86.1175 240.011 86.6973 238.512C86.9935 237.764 87.328 237.014 87.7195 236.28C88.1148 235.547 88.5685 234.833 89.0515 234.132C90.0295 232.741 90.9865 231.402 91.6818 229.973C92.38 228.547 92.8855 227.094 93.277 225.685C94.048 222.863 94.4403 220.237 94.537 218.027C94.6443 215.815 94.4553 214.019 94.1553 212.819C93.985 212.225 93.856 211.761 93.7173 211.466C93.5973 211.164 93.5388 211.002 93.5478 210.997Z" fill="#F2F2F2"/>
<path d="M106.135 120.669C106.135 120.669 105.227 120.378 102.968 119.874C100.709 119.37 98.0936 116.847 93.5996 116.883C90.5621 116.907 87.4046 117.897 85.2191 119.984C82.8829 122.214 82.1719 125.598 81.7369 128.781C81.4129 131.153 81.1601 133.599 80.0494 135.726C79.0751 137.592 77.5106 139.075 76.1561 140.692C74.8016 142.309 73.5986 144.219 73.5889 146.318C73.5829 147.747 74.1026 149.317 73.3181 150.517C72.8051 151.302 71.9959 152.533 71.3081 153.173C70.6204 153.813 70.4599 155.926 70.6676 157.614C70.7449 158.24 69.5816 163.49 77.8151 166.227C86.0494 168.964 106.135 120.669 106.135 120.669Z" fill="#263238"/>
<path d="M107.213 128.322L107.605 126.118L94.7252 121.497C90.6992 120.417 85.6239 123.822 84.7172 127.89C83.7092 132.409 82.6562 137.967 82.6592 141.459C82.6659 148.479 87.7779 150.18 87.7779 150.18L86.7332 156.983L101.85 159.564L107.213 128.322Z" fill="#AE7461"/>
<path d="M86.6059 134.359C86.5166 134.821 86.8331 135.277 87.3131 135.379C87.7924 135.481 88.2536 135.192 88.3436 134.731C88.4329 134.269 88.1171 133.813 87.6379 133.711C87.1579 133.608 86.6959 133.898 86.6059 134.359Z" fill="#263238"/>
<path d="M85.7052 131.029C85.7959 131.161 86.5391 130.773 87.4841 130.925C88.4299 131.063 89.0472 131.658 89.1679 131.559C89.2264 131.516 89.1484 131.292 88.8806 131.024C88.6174 130.758 88.1442 130.465 87.5547 130.374C86.9659 130.284 86.4357 130.423 86.1162 130.6C85.7899 130.777 85.6594 130.969 85.7052 131.029Z" fill="#263238"/>
<path d="M95.2994 135.537C95.2094 135.998 95.5267 136.454 96.0067 136.557C96.4859 136.659 96.9472 136.369 97.0372 135.908C97.1272 135.447 96.8099 134.99 96.3314 134.888C95.8507 134.785 95.3887 135.076 95.2994 135.537Z" fill="#263238"/>
<path d="M94.9668 132.671C95.0576 132.802 95.8016 132.415 96.7458 132.567C97.6916 132.705 98.3088 133.3 98.4296 133.2C98.4873 133.157 98.4108 132.933 98.1423 132.666C97.8798 132.399 97.4066 132.107 96.8171 132.016C96.2276 131.926 95.6981 132.065 95.3786 132.242C95.0531 132.42 94.9211 132.612 94.9668 132.671Z" fill="#263238"/>
<path d="M90.4316 139.139C90.4443 139.085 89.8728 138.892 88.9398 138.62C88.7021 138.557 88.4816 138.473 88.4666 138.302C88.4373 138.118 88.5791 137.874 88.7411 137.612C89.0598 137.063 89.3943 136.489 89.7453 135.887C91.1493 133.427 92.2068 131.388 92.1071 131.333C92.0073 131.277 90.7886 133.226 89.3838 135.686C89.0433 136.294 88.7178 136.873 88.4081 137.427C88.2731 137.687 88.0668 137.973 88.1328 138.355C88.1696 138.545 88.3256 138.704 88.4741 138.77C88.6211 138.842 88.7568 138.866 88.8746 138.892C89.8263 139.094 90.4196 139.192 90.4316 139.139Z" fill="#263238"/>
<path d="M87.7762 150.198C87.7762 150.198 92.5732 151.245 97.5712 149.223C97.5712 149.223 94.5007 153.653 87.5107 151.907L87.7762 150.198Z" fill="#6F4439"/>
<path d="M95.5013 129.411C95.5703 129.679 96.5333 129.648 97.6373 129.891C98.7466 130.112 99.6158 130.526 99.7868 130.308C99.8641 130.203 99.7306 129.945 99.3901 129.659C99.0533 129.373 98.4998 129.08 97.8361 128.94C97.1723 128.802 96.5476 128.849 96.1246 128.975C95.6993 129.101 95.4736 129.284 95.5013 129.411Z" fill="#263238"/>
<path d="M86.1642 128.696C86.2947 128.938 86.9817 128.824 87.7655 128.945C88.553 129.037 89.1852 129.329 89.3757 129.131C89.4605 129.032 89.3922 128.801 89.1365 128.549C88.8852 128.3 88.436 128.054 87.896 127.982C87.356 127.909 86.858 128.025 86.549 128.2C86.2362 128.374 86.108 128.579 86.1642 128.696Z" fill="#263238"/>
<path d="M90.897 141.512C91.2547 141.082 91.8562 140.865 92.4397 140.955C92.844 141.018 93.246 141.233 93.4777 141.576C93.7095 141.918 93.7395 142.391 93.5002 142.696C93.231 143.04 92.6985 143.097 92.2575 142.95C91.8157 142.802 91.4452 142.49 91.0927 142.179C90.9952 142.093 90.8962 142.004 90.8377 141.89C90.78 141.776 90.7732 141.63 90.855 141.541" fill="#6F4439"/>
<path d="M93.3316 140.012C93.1793 139.996 93.1306 141.012 92.2261 141.694C91.3238 142.378 90.2446 142.213 90.2303 142.356C90.2131 142.419 90.4628 142.564 90.9196 142.598C91.3673 142.634 92.0296 142.521 92.5831 142.104C93.1343 141.686 93.3908 141.105 93.4448 140.69C93.5033 140.266 93.4013 140.009 93.3316 140.012Z" fill="#263238"/>
<path d="M105.07 121.925C104.659 121.264 101.231 119.361 100.47 119.15C100.47 119.15 97.6131 117.075 92.8378 117.39C83.0421 118.036 84.1243 127.423 84.1243 127.423L90.1551 127.753C91.2846 128.302 94.8531 127.858 96.0118 127.372C97.1713 126.886 98.0916 125.884 98.4621 124.707C98.1711 125.813 100.506 130.087 101.134 131.049C102.526 133.179 103.201 132.736 104.592 134.866C105.131 131.485 106.138 127.613 105.247 124.134C105.06 123.402 105.472 122.571 105.07 121.925Z" fill="#263238"/>
<path d="M21.9961 98.8994L67.4521 88.4526L70.5248 101.822L55.1491 105.356L73.5856 185.573L58.8796 188.953L40.4431 108.736L25.0688 112.269L21.9961 98.8994Z" fill="#F2F2F2"/>
<path d="M55.8553 149.604C55.8553 149.604 55.9214 149.137 56.0256 148.393L56.1126 148.371L56.0601 148.144C56.4171 145.583 57.1303 140.374 57.2916 138.497C57.3501 137.814 57.5668 136.604 57.7993 136.006C58.4083 134.441 57.0448 134.282 56.1066 135.171C55.8411 135.422 55.3131 136.553 55.1683 137.031C54.7258 138.491 54.0178 139.248 54.0178 139.248C54.0178 139.248 45.2361 133.76 44.5131 134.674C43.7901 135.587 44.6586 137.661 44.6586 137.661C44.6586 137.661 43.5666 139.208 43.9063 140.698C44.2461 142.188 45.3058 143.06 45.3058 143.06C45.3058 143.06 44.7231 145.002 45.2541 145.856C45.6381 146.471 49.3364 150.542 50.3991 151.556L55.8553 149.604Z" fill="#AE7461"/>
<path d="M56.297 149.049C56.2857 149.292 63.1917 166.787 63.1917 166.787C63.1917 166.787 72.689 161.05 76.6242 158.529C80.5595 156.009 86.135 153.206 89.8167 153.696C93.4985 154.187 97.3467 158.161 97.3467 158.161L86.6487 168.141L75.1205 175.603C75.1205 175.603 63.0365 182.699 58.556 182.786C54.0755 182.873 52.6692 178.529 51.6822 176.173C50.6952 173.817 47.627 151.486 47.627 151.486L56.297 149.049Z" fill="black"/>
<path d="M107.345 156.567L84.3586 155.709C84.3586 155.709 71.7399 163.127 71.2299 176.251C70.7004 189.896 67.1514 203.083 67.1514 203.083L90.3009 205.935C92.7114 206.232 95.1511 206.198 97.5519 205.835L99.9639 205.471L97.6666 196.781C100.186 188.147 102.448 184.213 105.138 176.147C109.26 163.792 107.345 156.567 107.345 156.567Z" fill="black"/>
<path d="M97.5952 197.666C97.6042 197.702 97.0117 197.903 96.0232 198.118C95.0355 198.333 93.6487 198.543 92.1044 198.604C90.5594 198.663 89.1599 198.561 88.1587 198.421C87.1567 198.283 86.5499 198.128 86.5567 198.091C86.5642 198.045 87.1822 198.125 88.1819 198.207C89.1809 198.29 90.5654 198.357 92.0924 198.299C93.6194 198.239 94.9934 198.066 95.9834 197.906C96.9742 197.748 97.5839 197.621 97.5952 197.666Z" fill="#263238"/>
<path d="M85.3265 170.416C85.3528 170.462 84.5863 170.964 83.3128 171.719C82.04 172.475 80.2565 173.477 78.2548 174.523C76.2515 175.568 74.4103 176.459 73.0633 177.072C71.7163 177.686 70.8658 178.027 70.8433 177.98C70.82 177.929 71.6285 177.5 72.9425 176.824C74.3593 176.093 76.1233 175.183 78.074 174.176C80.0143 173.15 81.7685 172.223 83.1778 171.478C84.4843 170.786 85.2988 170.368 85.3265 170.416Z" fill="black"/>
<path d="M97.0523 172.402C96.0488 170.683 98.8223 163.969 97.5713 159.878C96.3203 155.788 96.1358 154.757 97.6568 150.406C99.1778 146.056 101.984 145.27 102.527 140.012C103.07 134.754 103.055 134.337 104.239 130.346C105.423 126.355 101.123 119.42 101.123 119.42C105.497 119.133 110.576 122.354 111.935 126.523C112.781 129.115 112.616 133.901 113.141 136.577C114 140.953 117.993 142.741 117.34 147.153C116.904 150.094 114.887 152.785 115.196 155.741C115.327 156.985 114.807 159.697 114.811 160.948C114.836 168.278 111.2 169.142 111.128 170.391C111.128 170.391 111.27 172.411 113.288 172.402C115.305 172.393 103.651 183.706 97.0523 172.402Z" fill="#263238"/>
<path d="M101.144 145.667L89.8594 153.755C95.8001 154.648 98.2069 160.722 98.2069 160.722C98.2069 160.722 105.856 142.555 101.144 145.667Z" fill="#263238"/>
</svg>
